<?xml version="1.0" encoding="UTF-8" standalone="no"?>
<!DOCTYPE svg PUBLIC "-//W3C//DTD SVG 1.1//EN" "http://www.w3.org/Graphics/SVG/1.1/DTD/svg11.dtd">
<svg width="100%" height="100%" viewBox="0 0 1125 2436" version="1.1" xmlns="http://www.w3.org/2000/svg" xmlns:xlink="http://www.w3.org/1999/xlink" xml:space="preserve" xmlns:serif="http://www.serif.com/" style="fill-rule:evenodd;clip-rule:evenodd;stroke-linecap:round;stroke-linejoin:round;stroke-miterlimit:1.5;">
    <g transform="matrix(1,0,0,1,-1556.86,-19.4233)">
        <g id="Vault---Homepage---Closed" serif:id="Vault / Homepage / Closed" transform="matrix(1,0,0,1,1556.86,19.4233)">
            <path d="M1125,112.5L1125,2323.5C1125,2385.59 1074.59,2436 1012.5,2436L112.5,2436C50.41,2436 0,2385.59 0,2323.5L0,112.5C0,50.41 50.41,0 112.5,0L1012.5,0C1074.59,0 1125,50.41 1125,112.5Z" style="fill:rgb(198,198,198);"/>
            <clipPath id="_clip1">
                <path d="M1125,112.5L1125,2323.5C1125,2385.59 1074.59,2436 1012.5,2436L112.5,2436C50.41,2436 0,2385.59 0,2323.5L0,112.5C0,50.41 50.41,0 112.5,0L1012.5,0C1074.59,0 1125,50.41 1125,112.5Z"/>
            </clipPath>
            <g clip-path="url(#_clip1)">
                <g transform="matrix(0.806047,0,0,1.00459,-1011.1,-56.3304)">
                    <path d="M2629,180.801L2629,2360.2C2629,2420.25 2568.24,2469 2493.4,2469L1408.6,2469C1333.76,2469 1273,2420.25 1273,2360.2L1273,180.801C1273,120.752 1333.76,72 1408.6,72L2493.4,72C2568.24,72 2629,120.752 2629,180.801Z"/>
                </g>
                <g id="Artboard1" transform="matrix(0.744881,0,0,1.64368,-1399.4,-5333.87)">
                    <path d="M3336,3318.01L3336,4655.99C3336,4684.14 3285.56,4707 3223.44,4707L2041.56,4707C1979.44,4707 1929,4684.14 1929,4655.99L1929,3318.01C1929,3289.86 1979.44,3267 2041.56,3267L3223.44,3267C3285.56,3267 3336,3289.86 3336,3318.01Z" style="fill:rgb(248,249,252);"/>
                    <clipPath id="_clip2">
                        <path d="M3336,3318.01L3336,4655.99C3336,4684.14 3285.56,4707 3223.44,4707L2041.56,4707C1979.44,4707 1929,4684.14 1929,4655.99L1929,3318.01C1929,3289.86 1979.44,3267 2041.56,3267L3223.44,3267C3285.56,3267 3336,3289.86 3336,3318.01Z"/>
                    </clipPath>
                    <g clip-path="url(#_clip2)">
                        <g transform="matrix(1.3425,0,0,0.60839,1626.95,3386.22)">
                            <g transform="matrix(72,0,0,72,632.236,220.083)">
                            </g>
                            <text x="254.092px" y="220.083px" style="font-family:'Larsseit-Medium', 'Larsseit';font-weight:500;font-size:72px;">D<tspan x="306.004px 323.716px 359.86px 377.572px 402.988px 438.556px 456.268px 470.092px 514.804px 550.372px 588.388px 606.1px " y="220.083px 220.083px 220.083px 220.083px 220.083px 220.083px 220.083px 220.083px 220.083px 220.083px 220.083px 220.083px ">igital Vault</tspan></text>
                        </g>
                        <g transform="matrix(1.3425,0,0,0.60839,1867.95,3258.45)">
                            <g transform="matrix(0.209677,0,0,0.209677,65.9776,496.396)">
                                <path d="M232.5,151.625L151.125,151.625L151.125,233L127.875,233L127.875,151.625L46.5,151.625L46.5,128.375L127.875,128.375L127.875,47L151.125,47L151.125,128.375L232.5,128.375L232.5,151.625Z" style="fill:rgb(38,63,68);fill-rule:nonzero;"/>
                            </g>
                            <g transform="matrix(1,0,0,1,-114.739,322.923)">
                                <g transform="matrix(42,0,0,42,603.154,220.083)">
                                </g>
                                <text x="254.092px" y="220.083px" style="font-family:'Larsseit-Medium', 'Larsseit';font-weight:500;font-size:42px;fill:rgb(38,63,68);">Add Bank Account</text>
                            </g>
                        </g>
                        <g transform="matrix(1.3425,0,0,0.60839,2544.38,3258.45)">
                            <g transform="matrix(0.209677,0,0,0.209677,65.9776,496.396)">
                                <path d="M232.5,151.625L151.125,151.625L151.125,233L127.875,233L127.875,151.625L46.5,151.625L46.5,128.375L127.875,128.375L127.875,47L151.125,47L151.125,128.375L232.5,128.375L232.5,151.625Z" style="fill:rgb(38,63,68);fill-rule:nonzero;"/>
                            </g>
                            <g transform="matrix(1,0,0,1,-114.739,322.923)">
                                <g transform="matrix(42,0,0,42,488.116,220.083)">
                                </g>
                                <text x="254.092px" y="220.083px" style="font-family:'Larsseit-Medium', 'Larsseit';font-weight:500;font-size:42px;fill:rgb(38,63,68);">Add Utilities</text>
                            </g>
                        </g>
                        <g transform="matrix(1.3425,0,0,0.60839,3051.09,3258.45)">
                            <g transform="matrix(0.209677,0,0,0.209677,65.9776,496.396)">
                                <path d="M232.5,151.625L151.125,151.625L151.125,233L127.875,233L127.875,151.625L46.5,151.625L46.5,128.375L127.875,128.375L127.875,47L151.125,47L151.125,128.375L232.5,128.375L232.5,151.625Z" style="fill:rgb(38,63,68);fill-rule:nonzero;"/>
                            </g>
                            <g transform="matrix(1,0,0,1,-114.739,322.923)">
                                <g transform="matrix(42,0,0,42,309.322,220.083)">
                                </g>
                                <text x="254.092px" y="220.083px" style="font-family:'Larsseit-Medium', 'Larsseit';font-weight:500;font-size:42px;fill:rgb(38,63,68);">Ad</text>
                            </g>
                        </g>
                        <g transform="matrix(1.35071,0,0,0.60839,-86.117,1946.77)">
                            <g transform="matrix(1,0,0,0.856557,0,396.045)">
                                <path d="M2502.91,2782.75L2502.91,3227.25C2502.91,3239.26 2494.62,3249 2484.4,3249L1540.23,3249C1530.01,3249 1521.72,3239.26 1521.72,3227.25L1521.72,2782.75C1521.72,2770.74 1530.01,2761 1540.23,2761L2484.4,2761C2494.62,2761 2502.91,2770.74 2502.91,2782.75Z" style="fill:white;stroke:rgb(206,206,206);stroke-width:1.47px;"/>
                            </g>
                            <g transform="matrix(3.1674,0,0,3.1674,2401.26,3090.39)">
                                <path d="M0,5.786C0,5.616 0.068,5.452 0.188,5.332C0.309,5.211 0.472,5.143 0.643,5.143L15.804,5.143L11.758,1.099C11.638,0.978 11.57,0.814 11.57,0.644C11.57,0.473 11.638,0.309 11.758,0.189C11.879,0.068 12.043,0 12.214,0C12.384,-0 12.548,0.068 12.669,0.189L17.811,5.331C17.871,5.391 17.919,5.462 17.951,5.54C17.983,5.618 18,5.702 18,5.786C18,5.871 17.983,5.954 17.951,6.033C17.919,6.111 17.871,6.182 17.811,6.241L12.669,11.384C12.548,11.505 12.384,11.572 12.214,11.572C12.043,11.572 11.879,11.505 11.758,11.384C11.638,11.263 11.57,11.099 11.57,10.929C11.57,10.758 11.638,10.594 11.758,10.474L15.804,6.429L0.643,6.429C0.472,6.429 0.309,6.361 0.188,6.241C0.068,6.12 0,5.957 0,5.786Z" style="fill:rgb(38,63,68);"/>
                            </g>
                            <g transform="matrix(1,0,0,1,32.8371,24.1115)">
                                <g transform="matrix(42,0,0,42,1794.63,2827.58)">
                                </g>
                                <text x="1635.28px" y="2827.58px" style="font-family:'Larsseit-Medium', 'Larsseit';font-weight:500;font-size:42px;fill:rgb(18,18,18);">P<tspan x="1658.17px 1681.52px " y="2827.58px 2827.58px ">er</tspan>sonal</text>
                            </g>
                            <g transform="matrix(1,0,0,1,647.02,298.397)">
                                <g transform="matrix(42,0,0,42,1716.09,2827.58)">
                                </g>
                                <text x="1635.28px" y="2827.58px" style="font-family:'Larsseit-Medium', 'Larsseit';font-weight:500;font-size:42px;fill:rgb(38,63,68);">Add</text>
                            </g>
                            <g transform="matrix(1,0,0,1,1309.66,2743.64)">
                                <g transform="matrix(42,0,0,42,714.076,220.083)">
                                </g>
                                <g transform="matrix(42,0,0,42,727.237,220.083)">
                                </g>
                                <text x="254.092px" y="220.083px" style="font-family:'Larsseit-Light', 'Larsseit';font-weight:300;font-size:42px;fill:rgb(101,101,101);stroke:rgb(101,101,101);stroke-width:1px;stroke-linecap:butt;stroke-miterlimit:2;">Information such as identiﬁcation do<tspan x="907.57px 930.124px " y="220.083px 220.083px ">cu</tspan>ments<tspan x="1063.47px " y="220.083px ">,</tspan></text>
                                <g transform="matrix(42,0,0,42,628.816,278.883)">
                                </g>
                                <text x="254.092px" y="278.883px" style="font-family:'Larsseit-Light', 'Larsseit';font-weight:300;font-size:42px;fill:rgb(101,101,101);stroke:rgb(101,101,101);stroke-width:1px;stroke-linecap:butt;stroke-miterlimit:2;">passp<tspan x="362.2px 386.266px 400.21px 414.28px 432.34px 440.152px " y="278.883px 278.883px 278.883px 278.883px 278.883px 278.883px ">orts, </tspan>and visas<tspan x="611.932px " y="278.883px ">.</tspan></text>
                            </g>
                            <g transform="matrix(1.88017,0,0,1.88017,1567.2,2806.23)">
                                <path d="M36.667,0L3.333,0C1.517,0.067 0.067,1.517 0,3.333L0,26.667C0.067,28.483 1.517,29.933 3.333,30L36.667,30C38.483,29.933 39.933,28.483 40,26.667L40,3.333C39.969,2.459 39.608,1.629 38.99,1.01C38.371,0.392 37.541,0.031 36.667,0ZM36.667,26.667L3.333,26.667L3.333,3.333L36.667,3.333L36.667,26.667ZM23.333,23.333L23.333,21.25C23.333,18.483 17.767,17.083 15,17.083C12.233,17.083 6.667,18.483 6.667,21.25L6.667,23.333L23.333,23.333ZM15,6.667C13.895,6.667 12.835,7.106 12.054,7.887C11.272,8.668 10.833,9.728 10.833,10.833C10.833,11.381 10.941,11.922 11.15,12.428C11.36,12.933 11.667,13.393 12.054,13.78C12.835,14.561 13.895,15 15,15C15.547,15 16.089,14.892 16.595,14.683C17.1,14.473 17.559,14.166 17.946,13.78C18.333,13.393 18.64,12.933 18.85,12.428C19.059,11.922 19.167,11.381 19.167,10.833C19.167,10.286 19.059,9.744 18.85,9.239C18.64,8.733 18.333,8.274 17.946,7.887C17.559,7.5 17.1,7.193 16.595,6.984C16.089,6.774 15.547,6.667 15,6.667ZM23.333,6.667L23.333,8.333L33.333,8.333L33.333,6.667L23.333,6.667ZM23.333,10L23.333,11.667L33.333,11.667L33.333,10L23.333,10ZM23.333,13.333L23.333,15L30,15L30,13.333L23.333,13.333Z" style="fill:rgb(18,18,18);fill-rule:nonzero;"/>
                            </g>
                        </g>
                        <g transform="matrix(1.35071,0,0,0.60839,-86.117,2228.45)">
                            <g transform="matrix(1,0,0,0.856557,0,396.045)">
                                <path d="M2502.91,2782.75L2502.91,3227.25C2502.91,3239.26 2494.62,3249 2484.4,3249L1540.23,3249C1530.01,3249 1521.72,3239.26 1521.72,3227.25L1521.72,2782.75C1521.72,2770.74 1530.01,2761 1540.23,2761L2484.4,2761C2494.62,2761 2502.91,2770.74 2502.91,2782.75Z" style="fill:white;stroke:rgb(206,206,206);stroke-width:1.47px;"/>
                            </g>
                            <g transform="matrix(3.1674,0,0,3.1674,2401.26,3090.39)">
                                <path d="M0,5.786C0,5.616 0.068,5.452 0.188,5.332C0.309,5.211 0.472,5.143 0.643,5.143L15.804,5.143L11.758,1.099C11.638,0.978 11.57,0.814 11.57,0.644C11.57,0.473 11.638,0.309 11.758,0.189C11.879,0.068 12.043,0 12.214,0C12.384,-0 12.548,0.068 12.669,0.189L17.811,5.331C17.871,5.391 17.919,5.462 17.951,5.54C17.983,5.618 18,5.702 18,5.786C18,5.871 17.983,5.954 17.951,6.033C17.919,6.111 17.871,6.182 17.811,6.241L12.669,11.384C12.548,11.505 12.384,11.572 12.214,11.572C12.043,11.572 11.879,11.505 11.758,11.384C11.638,11.263 11.57,11.099 11.57,10.929C11.57,10.758 11.638,10.594 11.758,10.474L15.804,6.429L0.643,6.429C0.472,6.429 0.309,6.361 0.188,6.241C0.068,6.12 0,5.957 0,5.786Z" style="fill:rgb(38,63,68);"/>
                            </g>
                            <g transform="matrix(1,0,0,1,32.9699,30.784)">
                                <g transform="matrix(42,0,0,42,1731.88,2827.58)">
                                </g>
                                <text x="1635.28px" y="2827.58px" style="font-family:'Larsseit-Medium', 'Larsseit';font-weight:500;font-size:42px;fill:rgb(18,18,18);">L<tspan x="1656.36px 1679.29px 1700.38px 1721.12px " y="2827.58px 2827.58px 2827.58px 2827.58px ">egal</tspan></text>
                            </g>
                            <g transform="matrix(1,0,0,1,647.02,298.397)">
                                <g transform="matrix(42,0,0,42,1716.09,2827.58)">
                                </g>
                                <text x="1635.28px" y="2827.58px" style="font-family:'Larsseit-Medium', 'Larsseit';font-weight:500;font-size:42px;fill:rgb(38,63,68);">Add</text>
                            </g>
                            <g transform="matrix(1,0,0,1,1309.66,2743.64)">
                                <text x="254.092px" y="220.083px" style="font-family:'Larsseit-Light', 'Larsseit';font-weight:300;font-size:42px;fill:rgb(101,101,101);stroke:rgb(101,101,101);stroke-width:1px;stroke-linecap:butt;stroke-miterlimit:2;">Information such as lawsuits<tspan x="754.648px 762.46px 771.322px 797.152px 820.798px 852.34px 875.44px " y="220.083px 220.083px 220.083px 220.083px 220.083px 220.083px 220.083px ">, power</tspan>s of attorne<tspan x="1093.25px 1111.52px " y="220.083px 220.083px ">y,</tspan></text>
                                <g transform="matrix(42,0,0,42,496.684,278.883)">
                                </g>
                                <text x="254.092px" y="278.883px" style="font-family:'Larsseit-Light', 'Larsseit';font-weight:300;font-size:42px;fill:rgb(101,101,101);stroke:rgb(101,101,101);stroke-width:1px;stroke-linecap:butt;stroke-miterlimit:2;">and y<tspan x="350.272px 374.338px " y="278.883px 278.883px ">ou</tspan>r Will.</text>
                            </g>
                        </g>
                        <g transform="matrix(1.35071,0,0,0.60839,1696.94,3314.07)">
                            <g transform="matrix(36,0,0,36,646.204,220.083)">
                            </g>
                            <text x="254.092px" y="220.083px" style="font-family:'Larsseit-Light', 'Larsseit';font-weight:300;font-size:36px;fill:rgb(101,101,101);stroke:rgb(101,101,101);stroke-width:1px;stroke-linecap:butt;stroke-miterlimit:2;">D<tspan x="280.624px 298.336px 314.464px 333.58px 355.72px 376.708px 394.42px 406.084px 427.72px 435.676px 449.752px 457.708px 484.24px 492.88px 510.844px 519.484px 531.904px 549.616px 558.256px 566.212px 588.82px 606.532px 625.504px 634.144px " y="220.083px 220.083px 220.083px 220.083px 220.083px 220.083px 220.083px 220.083px 220.083px 220.083px 220.083px 220.083px 220.083px 220.083px 220.083px 220.083px 220.083px 220.083px 220.083px 220.083px 220.083px 220.083px 220.083px 220.083px ">ashboard / Digital Vault</tspan></text>
                        </g>
                        <g transform="matrix(1.35071,0,0,0.60839,-86.117,2510.1)">
                            <g transform="matrix(1,0,0,0.856557,0,396.045)">
                                <path d="M2502.91,2782.75L2502.91,3227.25C2502.91,3239.26 2494.62,3249 2484.4,3249L1540.23,3249C1530.01,3249 1521.72,3239.26 1521.72,3227.25L1521.72,2782.75C1521.72,2770.74 1530.01,2761 1540.23,2761L2484.4,2761C2494.62,2761 2502.91,2770.74 2502.91,2782.75Z" style="fill:white;stroke:rgb(206,206,206);stroke-width:1.47px;"/>
                            </g>
                            <g transform="matrix(2.37437,0,0,2.38889,1582.72,2809.55)">
                                <path d="M9.649,13.167C5.866,12.183 4.649,11.167 4.649,9.583C4.649,7.767 6.332,6.5 9.149,6.5C12.116,6.5 13.216,7.917 13.316,10L16.999,10C16.882,7.133 15.132,4.5 11.649,3.65L11.649,0L6.649,0L6.649,3.6C3.416,4.3 0.816,6.4 0.816,9.617C0.816,13.467 3.999,15.383 8.649,16.5C12.816,17.5 13.649,18.967 13.649,20.517C13.649,21.667 12.832,23.5 9.149,23.5C5.716,23.5 4.366,21.967 4.182,20L0.516,20C0.716,23.65 3.449,25.7 6.649,26.383L6.649,30L11.649,30L11.649,26.417C14.899,25.8 17.482,23.917 17.482,20.5C17.482,15.767 13.432,14.15 9.649,13.167Z" style="fill-rule:nonzero;"/>
                            </g>
                            <g transform="matrix(3.1674,0,0,3.1674,2401.26,3090.39)">
                                <path d="M0,5.786C0,5.616 0.068,5.452 0.188,5.332C0.309,5.211 0.472,5.143 0.643,5.143L15.804,5.143L11.758,1.099C11.638,0.978 11.57,0.814 11.57,0.644C11.57,0.473 11.638,0.309 11.758,0.189C11.879,0.068 12.043,0 12.214,0C12.384,-0 12.548,0.068 12.669,0.189L17.811,5.331C17.871,5.391 17.919,5.462 17.951,5.54C17.983,5.618 18,5.702 18,5.786C18,5.871 17.983,5.954 17.951,6.033C17.919,6.111 17.871,6.182 17.811,6.241L12.669,11.384C12.548,11.505 12.384,11.572 12.214,11.572C12.043,11.572 11.879,11.505 11.758,11.384C11.638,11.263 11.57,11.099 11.57,10.929C11.57,10.758 11.638,10.594 11.758,10.474L15.804,6.429L0.643,6.429C0.472,6.429 0.309,6.361 0.188,6.241C0.068,6.12 0,5.957 0,5.786Z" style="fill:rgb(38,63,68);"/>
                            </g>
                            <g transform="matrix(1,0,0,1,32.9219,36.784)">
                                <g transform="matrix(42,0,0,42,1795.3,2827.58)">
                                </g>
                                <text x="1635.28px" y="2827.58px" style="font-family:'Larsseit-Medium', 'Larsseit';font-weight:500;font-size:42px;fill:rgb(18,18,18);">F<tspan x="1655.1px 1665.43px 1687.74px 1708.48px 1730.79px 1753.47px 1763.8px 1784.55px " y="2827.58px 2827.58px 2827.58px 2827.58px 2827.58px 2827.58px 2827.58px 2827.58px ">inancial</tspan></text>
                            </g>
                            <g transform="matrix(1,0,0,1,647.02,298.397)">
                                <g transform="matrix(42,0,0,42,1716.09,2827.58)">
                                </g>
                                <text x="1635.28px" y="2827.58px" style="font-family:'Larsseit-Medium', 'Larsseit';font-weight:500;font-size:42px;fill:rgb(38,63,68);">Add</text>
                            </g>
                            <g transform="matrix(1,0,0,1,1309.66,2743.64)">
                                <text x="254.092px" y="220.083px" style="font-family:'Larsseit-Light', 'Larsseit';font-weight:300;font-size:42px;fill:rgb(101,101,101);stroke:rgb(101,101,101);stroke-width:1px;stroke-linecap:butt;stroke-miterlimit:2;">Information such as bank accounts<tspan x="871.912px 879.724px " y="220.083px 220.083px ">, </tspan>pr<tspan x="927.016px 951.082px 976.912px 1000.01px 1013.96px 1028.03px " y="220.083px 220.083px 220.083px 220.083px 220.083px 220.083px ">operti</tspan>es<tspan x="1078.85px 1086.66px " y="220.083px 220.083px ">, </tspan>and</text>
                                <g transform="matrix(42,0,0,42,532.93,278.883)">
                                </g>
                                <text x="254.092px" y="278.883px" style="font-family:'Larsseit-Light', 'Larsseit';font-weight:300;font-size:42px;fill:rgb(101,101,101);stroke:rgb(101,101,101);stroke-width:1px;stroke-linecap:butt;stroke-miterlimit:2;">shar<tspan x="327.802px 350.902px " y="278.883px 278.883px ">e </tspan>accounts<tspan x="524.908px " y="278.883px ">.</tspan></text>
                            </g>
                        </g>
                        <g transform="matrix(1.20232,0,0,0.544863,2030.12,3947.45)">
                            <path d="M46.123,24.445C49.687,23.187 52.538,20.336 53.796,16.772L67.088,16.772L54.509,46.123C54.509,53.083 61.092,58.702 69.184,58.702C77.277,58.702 83.86,53.083 83.86,46.123L71.281,16.772L79.667,16.772L79.667,8.386L53.796,8.386C52.077,3.48 47.423,0 41.93,0C36.437,0 31.783,3.48 30.064,8.386L4.193,8.386L4.193,16.772L12.579,16.772L0,46.123C0,53.083 6.583,58.702 14.675,58.702C22.768,58.702 29.351,53.083 29.351,46.123L16.772,16.772L30.064,16.772C31.322,20.336 34.173,23.187 37.737,24.445L37.737,71.281L0,71.281L0,79.667L83.86,79.667L83.86,71.281L46.123,71.281L46.123,24.445ZM77.025,46.123L61.343,46.123L69.184,27.841L77.025,46.123ZM22.516,46.123L6.835,46.123L14.675,27.841L22.516,46.123ZM41.93,16.772C39.624,16.772 37.737,14.885 37.737,12.579C37.737,10.273 39.624,8.386 41.93,8.386C44.236,8.386 46.123,10.273 46.123,12.579C46.123,14.885 44.236,16.772 41.93,16.772Z" style="fill:rgb(33,33,33);fill-rule:nonzero;"/>
                        </g>
                        <g transform="matrix(1.35071,0,0,0.60839,-86.117,2792)">
                            <g transform="matrix(1,0,0,0.829318,2.27374e-13,471.252)">
                                <path d="M2502.91,2782.75L2502.91,3227.25C2502.91,3239.26 2494.88,3249 2484.99,3249L1539.64,3249C1529.75,3249 1521.72,3239.26 1521.72,3227.25L1521.72,2782.75C1521.72,2770.74 1529.75,2761 1539.64,2761L2484.99,2761C2494.88,2761 2502.91,2770.74 2502.91,2782.75Z" style="fill:white;stroke:rgb(206,206,206);stroke-width:1.49px;"/>
                            </g>
                            <g transform="matrix(1,0,0,1.00611,35.2006,19.5674)">
                                <g transform="matrix(41.7447,0,0,41.7447,1783.89,2827.58)">
                                </g>
                                <text x="1635.28px" y="2827.58px" style="font-family:'Larsseit-Medium', 'Larsseit';font-weight:500;font-size:41.745px;fill:rgb(18,18,18);">M<tspan x="1671.68px 1694.76px 1719.77px 1730.04px 1752.58px 1773.2px " y="2827.58px 2827.58px 2827.58px 2827.58px 2827.58px 2827.58px ">edical</tspan></text>
                            </g>
                            <g transform="matrix(1,0,0,1,1309.66,2743.64)">
                                <text x="254.092px" y="220.083px" style="font-family:'Larsseit-Light', 'Larsseit';font-weight:300;font-size:42px;fill:rgb(101,101,101);stroke:rgb(101,101,101);stroke-width:1px;stroke-linecap:butt;stroke-miterlimit:2;">Information such as Me<tspan x="670.774px 695.596px " y="220.083px 220.083px ">di</tspan>car<tspan x="761.242px 783.292px 791.104px " y="220.083px 220.083px 220.083px ">e, </tspan>private health</text>
                                <g transform="matrix(42,0,0,42,800.092,278.883)">
                                </g>
                                <text x="254.092px" y="278.883px" style="font-family:'Larsseit-Light', 'Larsseit';font-weight:300;font-size:42px;fill:rgb(101,101,101);stroke:rgb(101,101,101);stroke-width:1px;stroke-linecap:butt;stroke-miterlimit:2;">insur<tspan x="338.764px 359.008px " y="278.883px 278.883px ">an</tspan>ce<tspan x="425.494px 433.306px " y="278.883px 278.883px ">, </tspan>and me<tspan x="575.98px 600.802px " y="278.883px 278.883px ">di</tspan>cal histor<tspan x="773.8px 792.07px " y="278.883px 278.883px ">y.</tspan></text>
                            </g>
                        </g>
                        <g transform="matrix(4.27823,0,0,1.92702,3157.28,4672.56)">
                            <path d="M0,5.786C0,5.616 0.068,5.452 0.188,5.332C0.309,5.211 0.472,5.143 0.643,5.143L15.804,5.143L11.758,1.099C11.638,0.978 11.57,0.814 11.57,0.644C11.57,0.473 11.638,0.309 11.758,0.189C11.879,0.068 12.043,0 12.214,0C12.384,-0 12.548,0.068 12.669,0.189L17.811,5.331C17.871,5.391 17.919,5.462 17.951,5.54C17.983,5.618 18,5.702 18,5.786C18,5.871 17.983,5.954 17.951,6.033C17.919,6.111 17.871,6.182 17.811,6.241L12.669,11.384C12.548,11.505 12.384,11.572 12.214,11.572C12.043,11.572 11.879,11.505 11.758,11.384C11.638,11.263 11.57,11.099 11.57,10.929C11.57,10.758 11.638,10.594 11.758,10.474L15.804,6.429L0.643,6.429C0.472,6.429 0.309,6.361 0.188,6.241C0.068,6.12 0,5.957 0,5.786Z" style="fill:rgb(38,63,68);"/>
                        </g>
                        <g transform="matrix(1.35071,0,0,0.60839,787.816,2973.93)">
                            <g transform="matrix(42,0,0,42,1716.09,2827.58)">
                            </g>
                            <text x="1635.28px" y="2827.58px" style="font-family:'Larsseit-Medium', 'Larsseit';font-weight:500;font-size:42px;fill:rgb(38,63,68);">Add</text>
                        </g>
                        <g transform="matrix(0.355404,0,0,0.743587,2432.99,3285.74)">
                            <path d="M1047,1890.5C1047,1892.98 1037.69,1895 1026.22,1895L96.503,1895C85.037,1895 75.728,1892.98 75.728,1890.5C75.728,1888.02 85.037,1886 96.503,1886L1026.22,1886C1037.69,1886 1047,1888.02 1047,1890.5Z"/>
                        </g>
                        <g transform="matrix(3.63236,0,0,1.64611,1929,3388.82)">
                            <g transform="matrix(0.993208,0,0,1.72268,-1.8785e-13,-73.8221)">
                                <rect x="0" y="0" width="390" height="48" style="fill:white;stroke:rgb(192,192,192);stroke-width:0.39px;stroke-linecap:butt;stroke-miterlimit:2;"/>
                            </g>
                            <g transform="matrix(1,0,0,1,-5.71021,-38.8073)">
                                <path d="M18.461,20.363L18.461,26.762C18.461,33.597 24.026,39.125 30.898,39.125C37.771,39.125 43.336,33.597 43.336,26.762L43.336,20.363C43.336,13.528 37.771,8 30.898,8C24.026,8 18.461,13.528 18.461,20.363ZM40.709,20.363L40.709,26.762C40.709,32.141 36.314,36.498 30.898,36.498C25.483,36.498 21.088,32.141 21.088,26.762L21.088,20.363C21.088,14.984 25.483,10.627 30.898,10.627C36.327,10.627 40.709,14.984 40.709,20.363Z" style="fill:rgb(103,215,192);fill-rule:nonzero;"/>
                            </g>
                            <g transform="matrix(1,0,0,1,0,-38.8073)">
                                <path d="M354,30L369.75,30M354,24L369.75,24M354,18L369.75,18" style="fill:none;fill-rule:nonzero;stroke:rgb(25,28,28);stroke-width:2px;stroke-miterlimit:4;"/>
                            </g>
                            <g transform="matrix(0.369593,0,0,0.369593,-19.5612,-87.3299)">
                                <g transform="matrix(2.70568,0,0,2.70568,37.4763,131.287)">
                                    <path d="M25.881,14.81C23.279,17.4 23.279,21.583 25.881,24.172L29.305,27.571L30.239,28.493L32.094,26.638L27.736,22.305L27.662,22.218C26.168,20.649 26.205,18.197 27.736,16.665C29.305,15.096 31.87,15.096 33.438,16.665L36.016,19.23L37.858,17.362L35.281,14.798L35.181,14.711C32.592,12.233 28.446,12.258 25.881,14.81Z" style="fill:rgb(103,215,192);fill-rule:nonzero;"/>
                                </g>
                                <g transform="matrix(2.70568,0,0,2.70568,37.4763,131.287)">
                                    <path d="M31.558,18.62L29.703,20.487L34.06,24.82L34.135,24.907C35.629,26.476 35.591,28.928 34.06,30.46C32.491,32.028 29.927,32.028 28.358,30.46L25.781,27.895L23.926,29.763L26.503,32.327L26.603,32.414C29.205,34.904 33.338,34.867 35.915,32.327C38.517,29.738 38.517,25.554 35.915,22.965L31.558,18.62Z" style="fill:rgb(103,215,192);fill-rule:nonzero;"/>
                                </g>
                            </g>
                        </g>
                    </g>
                </g>
                <g transform="matrix(2.26,0,0,2.26,105.127,2088.09)">
                    <path d="M33.336,11.667L25.003,11.667L25.003,6.667C25.003,4.833 23.503,3.333 21.669,3.333L18.336,3.333C16.503,3.333 15.003,4.833 15.003,6.667L15.003,11.667L6.669,11.667C4.836,11.667 3.336,13.167 3.336,15L3.336,33.333C3.336,35.167 4.836,36.667 6.669,36.667L33.336,36.667C35.169,36.667 36.669,35.167 36.669,33.333L36.669,15C36.669,13.167 35.169,11.667 33.336,11.667ZM18.336,6.667L21.669,6.667L21.669,15L18.336,15L18.336,6.667ZM33.336,33.333L6.669,33.333L6.669,15L15.003,15C15.003,16.833 16.503,18.333 18.336,18.333L21.669,18.333C23.503,18.333 25.003,16.833 25.003,15L33.336,15L33.336,33.333ZM18.336,26.667L15.003,26.667L15.003,30L11.669,30L11.669,26.667L8.336,26.667L8.336,23.333L11.669,23.333L11.669,20L15.003,20L15.003,23.333L18.336,23.333L18.336,26.667ZM21.669,24.167L21.669,21.667L31.669,21.667L31.669,24.167L21.669,24.167ZM21.669,29.167L21.669,26.667L28.336,26.667L28.336,29.167L21.669,29.167Z" style="fill:rgb(33,33,33);fill-rule:nonzero;"/>
                </g>
                <g>
                    <g transform="matrix(0.183137,0,0,0.183137,839.489,49.2332)">
                        <g transform="matrix(1,0,0,1,402.164,166.078)">
                            <path d="M406,78.077L406,143.979C419.258,138.398 427.88,125.413 427.88,111.028C427.88,96.643 419.258,83.659 406,78.077Z" style="fill-rule:nonzero;stroke:black;stroke-width:2.02px;stroke-linecap:butt;stroke-miterlimit:2;"/>
                        </g>
                        <g transform="matrix(1,0,0,1,437.01,175.606)">
                            <path d="M31.231,62.462C31.231,45.213 45.213,31.231 62.462,31.231L327.923,31.231C345.171,31.231 359.154,45.213 359.154,62.462L359.154,140.538C359.154,157.787 345.171,171.769 327.923,171.769L62.462,171.769C45.213,171.769 31.231,157.787 31.231,140.538L31.231,62.462Z" style="fill-rule:nonzero;stroke:black;stroke-width:2.02px;stroke-linecap:butt;stroke-miterlimit:2;"/>
                        </g>
                    </g>
                    <g transform="matrix(0.775445,0,0,0.775445,195.399,21.384)">
                        <g transform="matrix(0.172832,0,0,0.172832,843.44,76.2107)">
                            <path d="M206.136,62.748C265.95,62.75 323.477,86.21 366.827,128.278C370.091,131.526 375.309,131.485 378.524,128.186L409.728,96.041C411.356,94.368 412.263,92.102 412.25,89.744C412.236,87.385 411.303,85.13 409.656,83.477C295.877,-27.826 116.378,-27.826 2.599,83.477C0.951,85.129 0.015,87.384 0,89.742C-0.015,92.1 0.891,94.367 2.518,96.041L33.731,128.186C36.944,131.49 42.166,131.531 45.428,128.278C88.783,86.207 146.316,62.747 206.136,62.748Z" style="fill:rgb(18,18,18);fill-rule:nonzero;stroke:black;stroke-width:2.76px;stroke-linecap:butt;stroke-miterlimit:2;"/>
                        </g>
                        <g transform="matrix(0.172832,0,0,0.172832,843.44,76.2107)">
                            <path d="M206.996,161.805C239.86,161.803 271.551,174.271 295.911,196.788C299.206,199.984 304.397,199.914 307.608,196.632L338.777,164.486C340.418,162.8 341.329,160.513 341.305,158.136C341.281,155.759 340.325,153.491 338.651,151.84C264.468,81.403 149.587,81.403 75.404,151.84C73.728,153.491 72.772,155.76 72.75,158.138C72.728,160.516 73.642,162.803 75.287,164.486L106.446,196.632C109.658,199.914 114.848,199.984 118.143,196.788C142.488,174.286 174.154,161.818 206.996,161.805Z" style="fill:rgb(18,18,18);fill-rule:nonzero;stroke:black;stroke-width:2.76px;stroke-linecap:butt;stroke-miterlimit:2;"/>
                        </g>
                        <g transform="matrix(0.172832,0,0,0.172832,843.44,76.2107)">
                            <path d="M267.839,232.911C269.506,231.241 270.424,228.943 270.377,226.56C270.329,224.176 269.32,221.918 267.587,220.319C233.156,190.593 182.727,190.593 148.296,220.319C146.562,221.917 145.551,224.174 145.502,226.558C145.452,228.941 146.369,231.24 148.035,232.911L201.958,288.449C203.538,290.081 205.693,291 207.942,291C210.19,291 212.345,290.081 213.925,288.449L267.839,232.911Z" style="fill:rgb(18,18,18);fill-rule:nonzero;stroke:black;stroke-width:2.76px;stroke-linecap:butt;stroke-miterlimit:2;"/>
                        </g>
                    </g>
                    <g transform="matrix(1,0,0,1,0,0.846018)">
                        <g transform="matrix(1,0,0,1,35,0)">
                            <path d="M647,97C647,115.765 631.765,131 613,131L442,131C423.235,131 408,115.765 408,97C408,78.235 423.235,63 442,63L613,63C631.765,63 647,78.235 647,97Z" style="stroke:black;stroke-width:0.37px;"/>
                        </g>
                        <g transform="matrix(1,0,0,1,-83,-142.5)">
                            <circle cx="722.5" cy="239.5" r="21.5" style="fill:rgb(40,40,40);stroke:black;stroke-width:0.37px;"/>
                        </g>
                    </g>
                    <g transform="matrix(1.32893,0,0,1.32893,636.938,-159.704)">
                        <g transform="matrix(45.1493,0,0,45.1493,-307.36,207.557)">
                        </g>
                        <text x="-381.169px" y="207.557px" style="font-family:'AppleSymbols', 'Apple Symbols';font-size:45.149px;stroke:rgb(16,12,12);stroke-width:0.75px;stroke-linecap:butt;stroke-miterlimit:2;">7:47</text>
                    </g>
                    <g transform="matrix(0.680425,0,0,0.680425,247.362,32.492)">
                        <g transform="matrix(0.787532,0,0,1,159.138,14.5283)">
                            <path d="M770,81.135L770,109.183C770,111.465 767.648,113.318 764.75,113.318L754.25,113.318C751.352,113.318 749,111.465 749,109.183L749,81.135C749,78.853 751.352,77 754.25,77L764.75,77C767.648,77 770,78.853 770,81.135Z" style="stroke:black;stroke-width:0.6px;"/>
                        </g>
                        <g transform="matrix(0.787532,0,0,1.16521,182.285,-4.19275)">
                            <path d="M770,80.548L770,109.769C770,111.728 767.648,113.318 764.75,113.318L754.25,113.318C751.352,113.318 749,111.728 749,109.769L749,80.548C749,78.59 751.352,77 754.25,77L764.75,77C767.648,77 770,78.59 770,80.548Z" style="stroke:black;stroke-width:0.55px;"/>
                        </g>
                        <g transform="matrix(0.787532,0,0,1.35795,204.382,-26.034)">
                            <path d="M770,80.045L770,110.273C770,111.953 767.648,113.318 764.75,113.318L754.25,113.318C751.352,113.318 749,111.953 749,110.273L749,80.045C749,78.364 751.352,77 754.25,77L764.75,77C767.648,77 770,78.364 770,80.045Z" style="stroke:black;stroke-width:0.49px;"/>
                        </g>
                        <g transform="matrix(0.787532,0,0,1.57823,227.852,-50.9954)">
                            <path d="M770,79.62L770,110.698C770,112.144 767.648,113.318 764.75,113.318L754.25,113.318C751.352,113.318 749,112.144 749,110.698L749,79.62C749,78.174 751.352,77 754.25,77L764.75,77C767.648,77 770,78.174 770,79.62Z" style="stroke:black;stroke-width:0.44px;"/>
                        </g>
                    </g>
                </g>
                <g transform="matrix(1.80635e-16,2.95,-2.95,1.80635e-16,107.149,300.812)">
                    <path d="M2.516,4.077L1.336,5.257L8.003,11.923L14.669,5.257L13.489,4.077L8.003,9.563L2.516,4.077Z" style="fill:rgb(101,101,101);fill-rule:nonzero;stroke:rgb(101,101,101);stroke-width:0.34px;stroke-linecap:butt;stroke-miterlimit:2;"/>
                </g>
            </g>
        </g>
    </g>
</svg>
