<?xml version="1.0" encoding="UTF-8" standalone="no"?>
<!DOCTYPE svg PUBLIC "-//W3C//DTD SVG 1.1//EN" "http://www.w3.org/Graphics/SVG/1.1/DTD/svg11.dtd">
<svg width="100%" height="100%" viewBox="0 0 1125 2436" version="1.1" xmlns="http://www.w3.org/2000/svg" xmlns:xlink="http://www.w3.org/1999/xlink" xml:space="preserve" xmlns:serif="http://www.serif.com/" style="fill-rule:evenodd;clip-rule:evenodd;stroke-linejoin:round;stroke-miterlimit:2;">
    <g transform="matrix(1,0,0,1,-3021,0)">
        <g id="Vault---Financial---Empty" serif:id="Vault / Financial / Empty" transform="matrix(1,0,0,1,3021,0)">
            <path d="M1125,112.5L1125,2323.5C1125,2385.59 1074.59,2436 1012.5,2436L112.5,2436C50.41,2436 0,2385.59 0,2323.5L0,112.5C0,50.41 50.41,0 112.5,0L1012.5,0C1074.59,0 1125,50.41 1125,112.5Z" style="fill:rgb(198,198,198);"/>
            <clipPath id="_clip1">
                <path d="M1125,112.5L1125,2323.5C1125,2385.59 1074.59,2436 1012.5,2436L112.5,2436C50.41,2436 0,2385.59 0,2323.5L0,112.5C0,50.41 50.41,0 112.5,0L1012.5,0C1074.59,0 1125,50.41 1125,112.5Z"/>
            </clipPath>
            <g clip-path="url(#_clip1)">
                <g transform="matrix(0.806047,0,0,1.00459,-1011.1,-56.3304)">
                    <path d="M2629,180.801L2629,2360.2C2629,2420.25 2568.24,2469 2493.4,2469L1408.6,2469C1333.76,2469 1273,2420.25 1273,2360.2L1273,180.801C1273,120.752 1333.76,72 1408.6,72L2493.4,72C2568.24,72 2629,120.752 2629,180.801Z"/>
                </g>
                <g id="Artboard1" transform="matrix(0.744881,0,0,1.64368,-1399.4,-5333.87)">
                    <path d="M3336,3318.01L3336,4655.99C3336,4684.14 3285.56,4707 3223.44,4707L2041.56,4707C1979.44,4707 1929,4684.14 1929,4655.99L1929,3318.01C1929,3289.86 1979.44,3267 2041.56,3267L3223.44,3267C3285.56,3267 3336,3289.86 3336,3318.01Z" style="fill:rgb(248,249,252);"/>
                    <clipPath id="_clip2">
                        <path d="M3336,3318.01L3336,4655.99C3336,4684.14 3285.56,4707 3223.44,4707L2041.56,4707C1979.44,4707 1929,4684.14 1929,4655.99L1929,3318.01C1929,3289.86 1979.44,3267 2041.56,3267L3223.44,3267C3285.56,3267 3336,3289.86 3336,3318.01Z"/>
                    </clipPath>
                    <g clip-path="url(#_clip2)">
                        <g transform="matrix(3.63236,0,0,1.64611,1929,3388.82)">
                            <g transform="matrix(0.993208,0,0,1.72268,-1.8785e-13,-73.8221)">
                                <rect x="0" y="0" width="390" height="48" style="fill:white;stroke:rgb(192,192,192);stroke-width:0.39px;"/>
                            </g>
                            <g transform="matrix(1,0,0,1,-5.71021,-38.8073)">
                                <path d="M18.461,20.363L18.461,26.762C18.461,33.597 24.026,39.125 30.898,39.125C37.771,39.125 43.336,33.597 43.336,26.762L43.336,20.363C43.336,13.528 37.771,8 30.898,8C24.026,8 18.461,13.528 18.461,20.363ZM40.709,20.363L40.709,26.762C40.709,32.141 36.314,36.498 30.898,36.498C25.483,36.498 21.088,32.141 21.088,26.762L21.088,20.363C21.088,14.984 25.483,10.627 30.898,10.627C36.327,10.627 40.709,14.984 40.709,20.363Z" style="fill:rgb(103,215,192);fill-rule:nonzero;"/>
                            </g>
                            <g transform="matrix(1,0,0,1,0,-38.8073)">
                                <path d="M354,30L369.75,30M354,24L369.75,24M354,18L369.75,18" style="fill:none;fill-rule:nonzero;stroke:rgb(25,28,28);stroke-width:2px;stroke-linecap:round;stroke-miterlimit:4;"/>
                            </g>
                            <g transform="matrix(0.369593,0,0,0.369593,-19.5612,-87.3299)">
                                <g transform="matrix(2.70568,0,0,2.70568,37.4763,131.287)">
                                    <path d="M25.881,14.81C23.279,17.4 23.279,21.583 25.881,24.172L29.305,27.571L30.239,28.493L32.094,26.638L27.736,22.305L27.662,22.218C26.168,20.649 26.205,18.197 27.736,16.665C29.305,15.096 31.87,15.096 33.438,16.665L36.016,19.23L37.858,17.362L35.281,14.798L35.181,14.711C32.592,12.233 28.446,12.258 25.881,14.81Z" style="fill:rgb(103,215,192);fill-rule:nonzero;"/>
                                </g>
                                <g transform="matrix(2.70568,0,0,2.70568,37.4763,131.287)">
                                    <path d="M31.558,18.62L29.703,20.487L34.06,24.82L34.135,24.907C35.629,26.476 35.591,28.928 34.06,30.46C32.491,32.028 29.927,32.028 28.358,30.46L25.781,27.895L23.926,29.763L26.503,32.327L26.603,32.414C29.205,34.904 33.338,34.867 35.915,32.327C38.517,29.738 38.517,25.554 35.915,22.965L31.558,18.62Z" style="fill:rgb(103,215,192);fill-rule:nonzero;"/>
                                </g>
                            </g>
                        </g>
                        <g transform="matrix(1.3425,0,0,0.60839,1626.95,3386.22)">
                            <g transform="matrix(72,0,0,72,534.172,220.083)">
                            </g>
                            <text x="254.092px" y="220.083px" style="font-family:'Larsseit-Medium', 'Larsseit';font-weight:500;font-size:72px;">F<tspan x="288.796px 307.228px " y="220.083px 220.083px ">in</tspan>ancial</text>
                        </g>
                        <g transform="matrix(0.355404,0,0,0.743587,2432.99,3285.74)">
                            <path d="M1047,1890.5C1047,1892.98 1037.69,1895 1026.22,1895L96.503,1895C85.037,1895 75.728,1892.98 75.728,1890.5C75.728,1888.02 85.037,1886 96.503,1886L1026.22,1886C1037.69,1886 1047,1888.02 1047,1890.5Z"/>
                        </g>
                        <g transform="matrix(1.3425,0,0,0.60839,1878.69,3245.07)">
                            <g transform="matrix(0.183137,0,0,0.183137,839.489,49.2332)">
                                <g transform="matrix(1,0,0,1,402.164,166.078)">
                                    <path d="M406,78.077L406,143.979C419.258,138.398 427.88,125.413 427.88,111.028C427.88,96.643 419.258,83.659 406,78.077Z" style="fill-rule:nonzero;stroke:black;stroke-width:2.02px;"/>
                                </g>
                                <g transform="matrix(1,0,0,1,437.01,175.606)">
                                    <path d="M31.231,62.462C31.231,45.213 45.213,31.231 62.462,31.231L327.923,31.231C345.171,31.231 359.154,45.213 359.154,62.462L359.154,140.538C359.154,157.787 345.171,171.769 327.923,171.769L62.462,171.769C45.213,171.769 31.231,157.787 31.231,140.538L31.231,62.462Z" style="fill-rule:nonzero;stroke:black;stroke-width:2.02px;"/>
                                </g>
                            </g>
                            <g transform="matrix(0.775445,0,0,0.775445,195.399,21.384)">
                                <g transform="matrix(0.172832,0,0,0.172832,843.44,76.2107)">
                                    <path d="M206.136,62.748C265.95,62.75 323.477,86.21 366.827,128.278C370.091,131.526 375.309,131.485 378.524,128.186L409.728,96.041C411.356,94.368 412.263,92.102 412.25,89.744C412.236,87.385 411.303,85.13 409.656,83.477C295.877,-27.826 116.378,-27.826 2.599,83.477C0.951,85.129 0.015,87.384 0,89.742C-0.015,92.1 0.891,94.367 2.518,96.041L33.731,128.186C36.944,131.49 42.166,131.531 45.428,128.278C88.783,86.207 146.316,62.747 206.136,62.748Z" style="fill:rgb(18,18,18);fill-rule:nonzero;stroke:black;stroke-width:2.76px;"/>
                                </g>
                                <g transform="matrix(0.172832,0,0,0.172832,843.44,76.2107)">
                                    <path d="M206.996,161.805C239.86,161.803 271.551,174.271 295.911,196.788C299.206,199.984 304.397,199.914 307.608,196.632L338.777,164.486C340.418,162.8 341.329,160.513 341.305,158.136C341.281,155.759 340.325,153.491 338.651,151.84C264.468,81.403 149.587,81.403 75.404,151.84C73.728,153.491 72.772,155.76 72.75,158.138C72.728,160.516 73.642,162.803 75.287,164.486L106.446,196.632C109.658,199.914 114.848,199.984 118.143,196.788C142.488,174.286 174.154,161.818 206.996,161.805Z" style="fill:rgb(18,18,18);fill-rule:nonzero;stroke:black;stroke-width:2.76px;"/>
                                </g>
                                <g transform="matrix(0.172832,0,0,0.172832,843.44,76.2107)">
                                    <path d="M267.839,232.911C269.506,231.241 270.424,228.943 270.377,226.56C270.329,224.176 269.32,221.918 267.587,220.319C233.156,190.593 182.727,190.593 148.296,220.319C146.562,221.917 145.551,224.174 145.502,226.558C145.452,228.941 146.369,231.24 148.035,232.911L201.958,288.449C203.538,290.081 205.693,291 207.942,291C210.19,291 212.345,290.081 213.925,288.449L267.839,232.911Z" style="fill:rgb(18,18,18);fill-rule:nonzero;stroke:black;stroke-width:2.76px;"/>
                                </g>
                            </g>
                            <g transform="matrix(1,0,0,1,0,0.846018)">
                                <g transform="matrix(1,0,0,1,35,0)">
                                    <path d="M647,97C647,115.765 631.765,131 613,131L442,131C423.235,131 408,115.765 408,97C408,78.235 423.235,63 442,63L613,63C631.765,63 647,78.235 647,97Z" style="stroke:black;stroke-width:0.37px;stroke-linecap:round;stroke-miterlimit:1.5;"/>
                                </g>
                                <g transform="matrix(1,0,0,1,-83,-142.5)">
                                    <circle cx="722.5" cy="239.5" r="21.5" style="fill:rgb(40,40,40);stroke:black;stroke-width:0.37px;stroke-linecap:round;stroke-miterlimit:1.5;"/>
                                </g>
                            </g>
                            <g transform="matrix(1.32893,0,0,1.32893,636.938,-159.704)">
                                <g transform="matrix(45.1493,0,0,45.1493,-307.36,207.557)">
                                </g>
                                <text x="-381.169px" y="207.557px" style="font-family:'AppleSymbols', 'Apple Symbols';font-size:45.149px;stroke:rgb(16,12,12);stroke-width:0.75px;">7:47</text>
                            </g>
                            <g transform="matrix(0.680425,0,0,0.680425,247.362,32.492)">
                                <g transform="matrix(0.787532,0,0,1,159.138,14.5283)">
                                    <path d="M770,81.135L770,109.183C770,111.465 767.648,113.318 764.75,113.318L754.25,113.318C751.352,113.318 749,111.465 749,109.183L749,81.135C749,78.853 751.352,77 754.25,77L764.75,77C767.648,77 770,78.853 770,81.135Z" style="stroke:black;stroke-width:0.6px;stroke-linecap:round;stroke-miterlimit:1.5;"/>
                                </g>
                                <g transform="matrix(0.787532,0,0,1.16521,182.285,-4.19275)">
                                    <path d="M770,80.548L770,109.769C770,111.728 767.648,113.318 764.75,113.318L754.25,113.318C751.352,113.318 749,111.728 749,109.769L749,80.548C749,78.59 751.352,77 754.25,77L764.75,77C767.648,77 770,78.59 770,80.548Z" style="stroke:black;stroke-width:0.55px;stroke-linecap:round;stroke-miterlimit:1.5;"/>
                                </g>
                                <g transform="matrix(0.787532,0,0,1.35795,204.382,-26.034)">
                                    <path d="M770,80.045L770,110.273C770,111.953 767.648,113.318 764.75,113.318L754.25,113.318C751.352,113.318 749,111.953 749,110.273L749,80.045C749,78.364 751.352,77 754.25,77L764.75,77C767.648,77 770,78.364 770,80.045Z" style="stroke:black;stroke-width:0.49px;stroke-linecap:round;stroke-miterlimit:1.5;"/>
                                </g>
                                <g transform="matrix(0.787532,0,0,1.57823,227.852,-50.9954)">
                                    <path d="M770,79.62L770,110.698C770,112.144 767.648,113.318 764.75,113.318L754.25,113.318C751.352,113.318 749,112.144 749,110.698L749,79.62C749,78.174 751.352,77 754.25,77L764.75,77C767.648,77 770,78.174 770,79.62Z" style="stroke:black;stroke-width:0.44px;stroke-linecap:round;stroke-miterlimit:1.5;"/>
                                </g>
                            </g>
                        </g>
                        <g transform="matrix(1.35071,0,0,0.60839,-181.019,1865.92)">
                            <g transform="matrix(42,0,0,42,1760.23,2827.58)">
                            </g>
                            <text x="1635.28px" y="2827.58px" style="font-family:'Larsseit-Medium', 'Larsseit';font-weight:500;font-size:42px;fill:rgb(18,18,18);">Assets</text>
                        </g>
                        <g transform="matrix(1.35071,0,0,0.60839,105.367,1865.92)">
                            <g transform="matrix(42,0,0,42,1804.92,2827.58)">
                            </g>
                            <text x="1635.28px" y="2827.58px" style="font-family:'Larsseit-Light', 'Larsseit';font-weight:300;font-size:42px;fill:rgb(18,18,18);stroke:black;stroke-width:1px;">Liabilities</text>
                        </g>
                        <g transform="matrix(1.35071,0,0,0.60839,805.536,1943.99)">
                            <g transform="matrix(42,0,0,42,2010.84,2827.58)">
                            </g>
                            <text x="1635.28px" y="2827.58px" style="font-family:'Larsseit-Light', 'Larsseit';font-weight:300;font-size:42px;fill:rgb(18,18,18);stroke:black;stroke-width:1px;">F<tspan x="1654.89px 1664.55px " y="2827.58px 2827.58px ">in</tspan>ancial Instruments</text>
                        </g>
                        <g transform="matrix(1.35071,0,0,0.60839,328.04,1943.99)">
                            <g transform="matrix(42,0,0,42,1903.32,2827.58)">
                            </g>
                            <text x="1635.28px" y="2827.58px" style="font-family:'Larsseit-Light', 'Larsseit';font-weight:300;font-size:42px;fill:rgb(18,18,18);stroke:black;stroke-width:1px;">Bank Accounts</text>
                        </g>
                        <g transform="matrix(1.35071,0,0,0.60839,425.838,1865.92)">
                            <g transform="matrix(42,0,0,42,1988.04,2827.58)">
                            </g>
                            <text x="1635.28px" y="2827.58px" style="font-family:'Larsseit-Light', 'Larsseit';font-weight:300;font-size:42px;fill:rgb(18,18,18);stroke:black;stroke-width:1px;">Re<tspan x="1681.06px 1703.61px " y="2827.58px 2827.58px ">cu</tspan>rring P<tspan x="1835.03px 1855.27px " y="2827.58px 2827.58px ">ay</tspan>ments</text>
                        </g>
                        <g transform="matrix(1.35071,0,0,0.60839,995.92,1865.92)">
                            <g transform="matrix(42,0,0,42,1963.17,2827.58)">
                            </g>
                            <g transform="matrix(42,0,0,42,1976.33,2827.58)">
                            </g>
                            <g transform="matrix(42,0,0,42,2018.32,2827.58)">
                            </g>
                            <text x="1635.28px" y="2827.58px" style="font-family:'Larsseit-Light', 'Larsseit';font-weight:300;font-size:42px;fill:rgb(18,18,18);stroke:black;stroke-width:1px;">Go<tspan x="1690.34px 1710.67px 1733.77px " y="2827.58px 2827.58px 2827.58px ">ver</tspan>nment Beneﬁts</text>
                        </g>
                        <g>
                            <g transform="matrix(1.1542,0,0,0.60839,-1605.92,3170.24)">
                                <path d="M3487,767.806L3487,827.194C3487,835.366 3479.28,842 3469.78,842L3119.23,842C3109.72,842 3102.01,835.366 3102.01,827.194L3102.01,767.806C3102.01,759.634 3109.72,753 3119.23,753L3469.78,753C3479.28,753 3487,759.634 3487,767.806Z" style="fill:rgb(38,63,68);"/>
                            </g>
                            <g transform="matrix(1.35071,0,0,0.60839,-145.058,1941.68)">
                                <g transform="matrix(42,0,0,42,1830.45,2827.58)">
                                </g>
                                <text x="1635.28px" y="2827.58px" style="font-family:'Larsseit-Medium', 'Larsseit';font-weight:500;font-size:42px;fill:white;">Pr<tspan x="1672.83px 1697.56px 1723.86px 1747.21px 1762.2px 1777.45px " y="2827.58px 2827.58px 2827.58px 2827.58px 2827.58px 2827.58px ">operti</tspan>es</text>
                            </g>
                        </g>
                        <g id="Button" transform="matrix(1,0,0,1,-99.1311,0)">
                            <g transform="matrix(1.88299,0,0,0.813465,-3471.88,3757.34)">
                                <path d="M3487,767.806L3487,827.194C3487,835.366 3480.68,842 3472.89,842L3116.12,842C3108.33,842 3102.01,835.366 3102.01,827.194L3102.01,767.806C3102.01,759.634 3108.33,753 3116.12,753L3472.89,753C3480.68,753 3487,759.634 3487,767.806Z" style="fill:rgb(38,63,68);"/>
                            </g>
                            <g transform="matrix(1.35071,0,0,0.60839,503.691,2696.3)">
                                <g transform="matrix(48,0,0,48,1727.63,2827.58)">
                                </g>
                                <text x="1635.28px" y="2827.58px" style="font-family:'Larsseit-Medium', 'Larsseit';font-weight:500;font-size:48px;fill:white;">Add</text>
                            </g>
                            <g transform="matrix(0.259285,0,0,0.117502,2633.87,4389.63)">
                                <path d="M232.5,151.625L151.125,151.625L151.125,233L127.875,233L127.875,151.625L46.5,151.625L46.5,128.375L127.875,128.375L127.875,47L151.125,47L151.125,128.375L232.5,128.375L232.5,151.625Z" style="fill:white;fill-rule:nonzero;"/>
                            </g>
                        </g>
                        <g transform="matrix(1.29531,0,0,0.304195,-1977.34,3425.46)">
                            <rect x="3052" y="589" width="1050" height="4" style="fill:rgb(206,206,206);"/>
                        </g>
                        <g transform="matrix(1.78411,0,0,0.60839,-3458.46,3249.33)">
                            <rect x="3046" y="578" width="152" height="8" style="fill:rgb(103,215,192);"/>
                        </g>
                        <g transform="matrix(1.35071,0,0,0.60839,1696.94,3314.07)">
                            <g transform="matrix(36,0,0,36,812.632,220.083)">
                            </g>
                            <text x="254.092px" y="220.083px" style="font-family:'Larsseit-Light', 'Larsseit';font-weight:300;font-size:36px;fill:rgb(101,101,101);stroke:rgb(101,101,101);stroke-width:1px;">D<tspan x="280.624px 298.336px 314.464px 333.58px 355.72px 376.708px 394.42px 406.084px 427.72px 435.676px 449.752px 457.708px 484.24px 492.88px 510.844px 519.484px 531.904px 549.616px 558.256px 566.212px 588.82px 606.532px 625.504px 634.144px 646.564px 654.52px 668.596px 676.552px 693.724px 702.364px 721.48px 739.192px 758.308px 778px 786.64px 804.352px " y="220.083px 220.083px 220.083px 220.083px 220.083px 220.083px 220.083px 220.083px 220.083px 220.083px 220.083px 220.083px 220.083px 220.083px 220.083px 220.083px 220.083px 220.083px 220.083px 220.083px 220.083px 220.083px 220.083px 220.083px 220.083px 220.083px 220.083px 220.083px 220.083px 220.083px 220.083px 220.083px 220.083px 220.083px 220.083px 220.083px ">ashboard / Digital Vault / Financial</tspan></text>
                        </g>
                        <g transform="matrix(2.42502e-16,1.79475,-3.96036,1.09897e-16,2022.54,3428.08)">
                            <path d="M2.516,4.077L1.336,5.257L8.003,11.923L14.669,5.257L13.489,4.077L8.003,9.563L2.516,4.077Z" style="fill:rgb(101,101,101);fill-rule:nonzero;stroke:rgb(101,101,101);stroke-width:0.34px;"/>
                        </g>
                    </g>
                </g>
                <g transform="matrix(1,0,0,1,-3089.65,-1521.92)">
                    <g transform="matrix(3.11894,0,0,3.11894,3395.77,2546.79)">
                        <path d="M109.646,95.141C118.321,96.199 125.764,101.549 131.89,102.282C138.697,103.097 148.993,98.624 159.492,103.888C162.194,105.243 164.413,106.872 163.586,108.896C162.145,112.422 159.114,113.804 152.472,114.763L151.763,114.861C146.629,115.543 141.11,115.709 127.121,115.801L122.341,115.837C105.288,115.986 95.426,116.784 82.655,117.805L81.354,117.91C57.837,119.845 39.066,119.535 25.039,117.39L24.616,117.324C13.284,115.549 6.471,112.613 3.145,109.282C1.187,107.321 0.059,105.492 0.001,103.538C-0.057,101.584 2.83,99.435 4.474,98.624C9.054,96.364 10.549,95.545 19.353,94.388C23.144,93.89 28.824,93.929 35.388,93.708C58.939,92.912 95.322,93.395 109.646,95.141Z" style="fill:white;fill-rule:nonzero;"/>
                    </g>
                    <g transform="matrix(3.11894,0,0,3.11894,3395.77,2546.79)">
                        <path d="M116.523,99.403C103.173,129.621 54.859,128.648 21.242,108.024C14.822,104.085 -7.247,85.519 14.474,74.678C36.195,63.838 29.238,47.186 46.768,27.325C67.04,4.357 104.792,-7.423 131.343,23.479C198.826,102.023 121.019,89.228 116.523,99.403Z" style="fill:rgb(103,215,192);"/>
                    </g>
                    <g transform="matrix(3.11894,0,0,3.11894,3395.77,2546.79)">
                        <path d="M27.279,19.275C26.076,17.341 24.87,16.599 23.683,17.241C22.679,17.784 22.512,19.236 23.046,21.558L22.726,21.731C22.286,21.968 22.121,22.517 22.359,22.957C22.379,22.995 22.402,23.032 22.428,23.067L22.6,23.296C25.106,26.62 27.091,27.981 28.64,27.233C29.942,26.603 30.162,23.923 29.492,19.074C29.445,18.734 29.142,18.493 28.805,18.517L28.763,18.522C28.686,18.532 28.612,18.556 28.545,18.593L27.279,19.275ZM23.727,21.037L26.52,19.526L26.513,19.516C25.553,18.026 24.739,17.552 24.052,17.923L24.021,17.942C23.514,18.251 23.373,19.224 23.696,20.885L23.727,21.037ZM28.748,19.365L23.094,22.414C23.031,22.448 23.008,22.526 23.042,22.589C23.045,22.594 23.048,22.599 23.052,22.604L23.218,22.827C25.508,25.865 27.231,27.052 28.302,26.534C29.116,26.141 29.33,23.751 28.764,19.478L28.748,19.365ZM27.593,24.253C27.726,24.114 27.808,23.925 27.808,23.717C27.808,23.289 27.46,22.941 27.032,22.941C26.603,22.941 26.256,23.289 26.256,23.717C26.256,24.146 26.603,24.493 27.032,24.493C27.065,24.493 27.099,24.491 27.131,24.487L27.572,25.297L27.588,25.322C27.663,25.428 27.807,25.464 27.923,25.4C28.049,25.332 28.095,25.175 28.027,25.049L27.593,24.253Z" style="fill:rgb(103,215,192);"/>
                    </g>
                    <g transform="matrix(3.11894,0,0,3.11894,3395.77,2546.79)">
                        <path d="M109.646,95.141C118.321,96.199 125.764,101.549 131.89,102.282C138.697,103.097 148.993,98.624 159.492,103.888C162.194,105.243 164.413,106.872 163.586,108.896C162.145,112.422 159.114,113.804 152.472,114.763L151.763,114.861C146.629,115.543 141.11,115.709 127.121,115.801L122.341,115.837C105.288,115.986 95.426,116.784 82.655,117.805L81.354,117.91C57.837,119.845 39.066,119.535 25.039,117.39L24.616,117.324C13.284,115.549 6.471,112.613 3.145,109.282C1.187,107.321 0.059,105.492 0.001,103.538C-0.057,101.584 2.83,99.435 4.474,98.624C9.054,96.364 10.549,95.545 19.353,94.388C23.144,93.89 28.824,93.929 35.388,93.708C58.939,92.912 95.322,93.395 109.646,95.141ZM19.159,96.025L18.582,96.102C10.377,97.214 5.132,99.239 2.647,101.257L2.492,101.386C0.584,103.03 0.406,104.878 3.148,107.611C6.147,110.598 13.794,113.968 24.822,115.687C38.627,117.838 57.188,118.462 80.496,116.592L82.94,116.395C96.397,115.337 106.721,114.774 125.829,114.639L131.104,114.6C142.48,114.497 147.315,114.294 151.983,113.645L152.427,113.581C173.039,109.549 158.166,102.315 149.633,102.282C142.326,102.254 133.548,104.31 131.104,103.54C123.4,101.115 119.444,97.402 109.646,96.214L106.796,95.873L104.364,95.758C64.501,93.906 36.091,93.812 19.159,96.025Z" style="fill:rgb(0,22,10);"/>
                    </g>
                    <g transform="matrix(3.11894,0,0,3.11894,3395.77,2546.79)">
                        <path d="M44.975,2.345C44.834,2.341 44.692,2.341 44.55,2.346C41.062,2.466 38.324,5.363 38.387,8.842L38.39,8.947L38.433,10.251C38.555,14.166 38.623,18.066 38.635,21.951L38.656,33.903C38.661,38.205 38.658,42.088 38.646,45.89L38.628,49.922C38.561,62.759 38.378,71.768 38.038,75.689L37.972,76.423C37.563,81.216 37.478,88.1 37.721,97.059C37.724,97.162 37.729,97.266 37.737,97.369C38.005,101.001 41.138,103.737 44.763,103.528L44.873,103.521L46.077,103.433C57.336,102.63 68.595,102.228 79.854,102.228C90.874,102.228 101.979,102.613 113.168,103.383C113.492,103.405 113.817,103.407 114.141,103.389C118.383,103.149 121.637,99.549 121.467,95.318L121.461,95.19L121.376,93.663C120.625,79.917 120.236,66.17 120.209,52.423L120.208,50.896C120.208,40.876 120.677,27.135 121.615,9.666C121.626,9.47 121.628,9.274 121.622,9.078C121.504,5.286 118.365,2.299 114.585,2.356L114.47,2.358L108.75,2.532C95.753,2.915 86.29,3.116 80.353,3.133L79.336,3.134L78.289,3.131C72.229,3.105 62.847,2.897 50.139,2.508L44.975,2.345Z" style="fill:white;fill-rule:nonzero;"/>
                    </g>
                    <g transform="matrix(3.11894,0,0,3.11894,3395.77,2546.79)">
                        <path d="M114.03,1.989C113.572,2.24 112.968,2.417 112.219,2.519C114.148,2.69 115.665,2.65 116.769,2.399L116.53,2.369C115.753,2.271 114.919,2.144 114.03,1.989Z" style="fill:rgb(231,234,238);"/>
                    </g>
                    <g transform="matrix(3.11894,0,0,3.11894,3395.77,2546.79)">
                        <path d="M41.463,94.493L41.516,94.495C41.85,94.518 42.085,94.778 42.054,95.066C42.019,95.395 41.667,95.714 41.284,95.741C40.978,95.762 40.767,95.527 40.8,95.162C40.836,94.78 41.135,94.495 41.463,94.493Z" style="fill:rgb(231,234,238);"/>
                    </g>
                    <g transform="matrix(3.11894,0,0,3.11894,3395.77,2546.79)">
                        <path d="M47.572,99.49L47.626,99.491C47.959,99.515 48.194,99.775 48.164,100.063C48.129,100.392 47.777,100.711 47.393,100.737C47.088,100.758 46.876,100.523 46.91,100.159C46.945,99.777 47.245,99.491 47.572,99.49Z" style="fill:rgb(231,234,238);"/>
                    </g>
                    <g transform="matrix(3.11894,0,0,3.11894,3395.77,2546.79)">
                        <path d="M79.926,99.161C66.679,102.084 91.551,101.568 101.254,100.927C106.535,100.579 110.751,103.217 113.173,103.383C113.496,103.406 113.821,103.407 114.145,103.389C118.387,103.149 121.642,99.549 121.471,95.318L121.465,95.19L121.38,93.664C120.629,79.917 120.24,66.17 120.213,52.423L120.212,50.896C120.212,40.877 120.681,27.135 121.619,9.666C121.63,9.47 121.632,9.274 121.626,9.079C121.508,5.287 114.241,91.587 79.926,99.161Z" style="fill:rgb(231,234,238);"/>
                    </g>
                    <g transform="matrix(3.11894,0,0,3.11894,3395.77,2546.79)">
                        <path d="M119.215,95.627L119.262,95.629C119.503,95.648 119.701,95.899 119.672,96.206C119.641,96.546 119.348,96.852 119.055,96.875C118.85,96.891 118.676,96.67 118.707,96.29C118.738,95.902 118.981,95.633 119.215,95.627Z" style="fill:white;fill-rule:nonzero;"/>
                    </g>
                    <g transform="matrix(3.11894,0,0,3.11894,3395.77,2546.79)">
                        <path d="M119.126,97.844C118.264,97.912 117.658,97.141 117.733,96.213C117.806,95.311 118.493,94.595 119.318,94.66C120.129,94.724 120.711,95.464 120.634,96.297C120.56,97.096 119.901,97.782 119.126,97.844ZM119.256,95.629L119.209,95.627C118.976,95.633 118.733,95.902 118.701,96.291C118.67,96.671 118.844,96.891 119.049,96.875C119.342,96.852 119.635,96.546 119.667,96.207C119.695,95.9 119.497,95.648 119.256,95.629Z" style="fill:white;"/>
                    </g>
                    <g transform="matrix(3.11894,0,0,3.11894,3395.77,2546.79)">
                        <path d="M111.009,7.945C114.074,7.945 116.56,10.43 116.56,13.496C116.56,13.61 116.556,13.725 116.549,13.84L116.467,15.2C116.318,17.781 116.17,20.845 116.021,24.393L115.999,24.961C115.636,34.505 115.624,57.084 115.964,92.697C115.993,95.763 113.532,98.272 110.466,98.301C110.392,98.302 110.317,98.301 110.242,98.299L49.341,96.42C46.521,96.333 44.215,94.144 43.98,91.333L43.929,90.698C43.127,80.589 43.079,67.68 43.786,51.972L43.889,49.719C44.25,41.453 44.278,29.414 43.974,13.603C43.916,10.569 46.302,8.058 49.322,7.948L49.471,7.945L111.009,7.945Z" style="fill:white;fill-rule:nonzero;"/>
                    </g>
                    <g transform="matrix(3.11894,0,0,3.11894,3395.77,2546.79)">
                        <path d="M70.063,73.408C72.753,73.521 75.516,73.044 77.912,71.873C80.913,70.407 83.171,67.947 84.421,64.42C86.067,59.773 85.463,54.75 83.096,50.328C80.989,46.393 77.677,43.397 74.625,42.657C74.625,42.657 83.096,54.573 81.882,61.087C80.027,71.047 70.063,73.408 70.063,73.408Z" style="fill:rgb(231,234,238);"/>
                    </g>
                    <g transform="matrix(3.11894,0,0,3.11894,3395.77,2546.79)">
                        <path d="M72.019,59.413C73.329,59.957 73.728,60.966 73.218,62.441L73.189,62.524C69.873,71.628 65.963,71.711 69.309,62.524C69.714,61.411 69.614,60.557 69.007,59.962C70.079,59.744 71.083,59.562 72.019,59.413Z" style="fill:rgb(231,234,238);"/>
                    </g>
                    <g transform="matrix(3.11894,0,0,3.11894,3395.77,2546.79)">
                        <path d="M51.252,48.771C52.11,46.222 53.363,44.305 55.704,42.79L56.002,42.602C56.507,42.285 57.129,41.926 57.636,42.171C58.279,42.483 59.211,43.618 58.644,44.064C58.26,44.367 56.677,44.688 55.484,45.733C54.076,46.967 53.063,48.955 53.063,49.442C53.063,51.03 50.745,50.276 51.252,48.771Z" style="fill:rgb(231,234,238);"/>
                    </g>
                    <g transform="matrix(3.11894,0,0,3.11894,3395.77,2546.79)">
                        <path d="M48.593,12.441C45.647,20.527 45.668,22.132 45.491,20.738C44.919,16.23 44.488,13.268 45.167,11.469C46.027,9.19 48.182,8.742 48.737,9.007C49.911,9.566 48.593,12.441 48.593,12.441Z" style="fill:rgb(231,234,238);"/>
                    </g>
                    <g transform="matrix(3.11894,0,0,3.11894,3395.77,2546.79)">
                        <path d="M97.049,53.998L96.069,53.968C94.906,53.939 94.069,53.946 93.365,54.001C92.801,54.045 92.38,54.122 92.141,54.197L92.094,54.213L92.089,54.235C92.063,54.367 92.044,54.544 92.036,54.757L92.033,54.839C92.018,55.479 92.095,56.334 92.249,57.289C92.375,58.072 92.547,58.886 92.727,59.571L92.772,59.74C92.841,59.996 92.908,60.218 92.967,60.392L92.989,60.454L93.014,60.463C93.375,60.591 94.093,60.607 95.477,60.504L96.417,60.431C97.05,60.385 97.511,60.365 97.967,60.37L102.384,60.463C103.002,60.474 103.56,60.483 104.107,60.49L105.099,60.502C107.577,60.646 110.301,60.538 110.64,59.921C111.673,58.04 112.16,54.165 111.673,54.139C110.796,54.093 109.735,54.038 109.231,54.045L108.067,54.065L107.012,54.074C106.53,54.077 106.027,54.078 105.488,54.079L99.434,54.065C99.04,54.062 98.655,54.053 97.96,54.03L97.049,53.998Z" style="fill:rgb(231,234,238);"/>
                    </g>
                    <g transform="matrix(3.11894,0,0,3.11894,3395.77,2546.79)">
                        <path d="M50.631,1.135L45.02,0.959C44.847,0.953 44.675,0.953 44.503,0.959C40.213,1.107 36.855,4.704 37.003,8.993L37.045,10.295C37.096,11.902 37.172,13.506 37.249,15.108C37.378,17.828 37.508,20.541 37.508,23.246L37.526,33.056C37.543,46.737 37.502,69.269 36.894,75.795L36.848,76.307C36.453,80.931 36.098,87.437 36.301,95.824L36.334,97.097C36.337,97.222 36.343,97.347 36.353,97.472C36.68,101.905 40.54,105.233 44.973,104.906L46.176,104.818L46.375,104.804C46.415,104.871 46.456,104.938 46.496,105.005C46.691,105.326 46.873,105.627 46.915,105.774C47.022,106.146 47.033,106.568 46.972,107.521L46.909,108.414L46.892,108.704C46.801,110.486 47.007,111.545 47.876,112.343C48.993,113.369 50.177,113.26 52.603,113.037L52.712,113.027L53.336,112.967C54.058,112.897 54.869,112.953 55.422,112.992L55.423,112.992C55.582,113.003 55.719,113.012 55.828,113.017L56.032,113.027C57.423,113.083 57.644,112.625 57.766,111.492C57.834,110.868 57.746,110.377 57.379,109.11L57.105,108.176L57.014,107.852C56.586,106.269 56.625,105.479 57.183,105.097C57.318,105.004 57.884,104.836 58.536,104.642L58.536,104.642C59.207,104.442 59.97,104.215 60.45,104.016C66.918,103.75 73.386,103.617 79.854,103.617C86.65,103.617 93.478,103.764 100.339,104.057C100.293,104.131 100.285,104.238 100.333,104.388C100.388,104.556 100.594,104.673 100.858,104.822C101.558,105.218 102.66,105.841 102.403,108.262L102.404,108.361C102.443,110.27 103.6,111.389 105.46,111.769C106.704,112.023 108.12,111.946 109.661,111.679C110.424,111.547 110.916,111.069 111.15,110.342C111.28,109.941 111.326,109.58 111.357,108.862C111.357,108.862 111.017,105.13 112.904,104.756C112.961,104.76 113.017,104.764 113.073,104.768C113.291,104.783 113.51,104.79 113.729,104.789C113.759,104.796 113.789,104.804 113.819,104.812C113.909,104.837 113.995,104.823 114.073,104.782C114.122,104.78 114.17,104.778 114.219,104.775C119.269,104.489 123.132,100.163 122.846,95.113L122.761,93.588C121.984,79.358 121.595,65.127 121.595,50.896C121.595,41.206 122.036,28.007 122.917,11.301L123,9.741C123.013,9.506 123.016,9.271 123.008,9.036C122.866,4.439 119.024,0.829 114.427,0.972L111.514,1.061C97.078,1.499 86.69,1.727 80.351,1.745L79.337,1.746C73.419,1.742 63.85,1.538 50.631,1.135ZM111.01,104.63C107.802,104.423 104.602,104.248 101.408,104.104C102.937,104.846 103.483,106.232 103.513,108.149L103.514,108.262C103.514,109.502 104.478,110.312 105.776,110.577C105.912,110.604 106.051,110.635 106.194,110.666C107.09,110.86 108.115,111.082 109.251,110.896L109.424,110.867C110.21,110.577 110.21,107.753 110.21,107.753C110.218,107.523 110.226,107.373 110.24,107.191L110.257,106.986C110.355,105.958 110.57,105.19 111.01,104.63ZM48.249,105.392C48.174,105.129 48.066,104.896 47.927,104.697C50.65,104.512 53.373,104.352 56.096,104.215C55.671,104.689 55.631,105.329 55.615,106.094C55.602,106.753 55.735,107.454 56.015,108.442L56.032,108.501L56.288,109.373C56.602,110.451 56.696,110.902 56.67,111.28L56.664,111.344C56.626,111.694 56.176,112.09 55.416,112.046L55.28,112.039C54.953,111.989 51.74,112.046 51.74,112.046C50.257,112.196 49.542,111.989 48.814,111.321C48.326,110.872 48.195,110.075 48.291,108.55L48.351,107.694C48.427,106.575 48.42,106.051 48.279,105.502L48.249,105.392ZM44.55,2.346C44.692,2.341 44.834,2.341 44.975,2.346L50.139,2.508C62.847,2.898 72.229,3.106 78.289,3.132L79.336,3.134L80.353,3.133C86.29,3.116 95.753,2.916 108.75,2.532L114.47,2.359L114.585,2.356C118.364,2.3 121.504,5.287 121.622,9.079C121.627,9.275 121.625,9.471 121.615,9.666C120.677,27.136 120.208,40.877 120.208,50.896L120.209,52.424C120.236,66.171 120.625,79.917 121.376,93.664L121.461,95.19L121.467,95.318C121.638,99.55 118.383,103.149 114.141,103.389C113.816,103.408 113.492,103.406 113.168,103.383C101.979,102.614 90.874,102.229 79.854,102.229C68.595,102.229 57.336,102.631 46.077,103.434L44.873,103.521L44.763,103.529C41.138,103.738 38.005,101.002 37.737,97.369C37.729,97.266 37.724,97.163 37.721,97.059C37.478,88.1 37.563,81.216 37.972,76.423L38.038,75.69C38.377,71.768 38.56,62.759 38.628,49.922L38.645,45.89C38.658,42.088 38.661,38.206 38.656,33.904L38.635,21.951C38.623,18.067 38.555,14.167 38.433,10.251L38.39,8.948L38.387,8.842C38.324,5.363 41.062,2.466 44.55,2.346ZM116.557,13.496C116.557,10.43 114.071,7.944 111.006,7.944L49.468,7.945L49.319,7.948C46.299,8.057 43.913,10.569 43.971,13.602C44.275,29.414 44.247,41.453 43.886,49.719L43.783,51.971C43.076,67.679 43.124,80.588 43.926,90.698L43.977,91.333C44.212,94.144 46.518,96.333 49.338,96.42L110.239,98.298C110.314,98.301 110.389,98.302 110.463,98.301C113.529,98.272 115.99,95.763 115.961,92.697C115.621,57.084 115.633,34.505 115.996,24.961L116.018,24.393C116.166,20.845 116.315,17.78 116.464,15.2L116.546,13.839C116.553,13.725 116.557,13.61 116.557,13.496ZM49.521,9.332L111.006,9.332C113.305,9.332 115.169,11.196 115.169,13.496C115.169,13.582 115.166,13.668 115.161,13.754C115.015,16.094 114.871,18.889 114.726,22.138L114.632,24.335C114.265,33.103 114.229,54.099 114.524,87.357L114.573,92.71C114.595,95.01 112.749,96.891 110.45,96.913C110.394,96.914 110.338,96.913 110.282,96.911L49.381,95.033L49.289,95.029C47.216,94.92 45.534,93.295 45.36,91.218C44.506,80.977 44.449,67.747 45.192,51.537L45.261,50.037C45.611,42.237 45.661,31.051 45.411,16.472L45.359,13.576C45.314,11.277 47.142,9.377 49.441,9.333C49.468,9.332 49.494,9.332 49.521,9.332ZM47.394,5.076C47.482,6.02 46.798,6.777 45.877,6.713C45.034,6.655 44.293,5.983 44.207,5.173L44.202,5.113C44.148,4.307 44.766,3.622 45.594,3.534L45.657,3.529C46.54,3.468 47.309,4.166 47.394,5.076ZM45.764,4.497L45.711,4.499C45.377,4.522 45.142,4.782 45.173,5.07C45.208,5.399 45.56,5.718 45.943,5.744C46.249,5.765 46.461,5.531 46.427,5.166C46.391,4.784 46.092,4.498 45.764,4.497ZM40.853,12.435C39.893,12.52 39.246,11.596 39.325,10.488C39.404,9.402 40.15,8.529 41.073,8.611L41.133,8.617C41.981,8.728 42.567,9.562 42.519,10.497L42.515,10.563C42.435,11.519 41.718,12.358 40.853,12.435ZM41.002,9.579L40.955,9.577C40.66,9.581 40.336,9.979 40.294,10.558C40.253,11.136 40.501,11.49 40.767,11.467C41.128,11.435 41.504,10.995 41.546,10.483C41.586,9.997 41.313,9.607 41.002,9.579ZM112.762,5.076C112.674,6.02 113.358,6.777 114.279,6.713C115.121,6.655 115.863,5.983 115.949,5.173L115.954,5.113C116.008,4.307 115.39,3.622 114.562,3.534L114.499,3.529C113.616,3.468 112.846,4.166 112.762,5.076ZM114.392,4.497L114.445,4.499C114.778,4.522 115.014,4.782 114.983,5.07C114.948,5.399 114.596,5.718 114.213,5.744C113.907,5.765 113.695,5.531 113.729,5.166C113.765,4.784 114.064,4.498 114.392,4.497ZM117.934,10.847C117.419,10.081 117.733,9.11 118.594,8.714C119.424,8.332 120.413,8.65 120.803,9.445L120.829,9.502C121.167,10.263 120.882,11.141 120.158,11.497L120.104,11.523C119.359,11.853 118.406,11.547 117.934,10.847ZM119.936,9.883L119.91,9.835C119.746,9.553 119.348,9.436 119,9.597C118.667,9.75 118.57,10.051 118.74,10.304C118.955,10.624 119.408,10.769 119.71,10.634C119.974,10.517 120.082,10.183 119.936,9.883ZM40.167,93.99C39.494,94.656 39.531,95.675 40.277,96.219C40.96,96.716 41.96,96.677 42.547,96.112L42.589,96.07C43.148,95.487 43.115,94.565 42.537,93.965L42.493,93.921C41.855,93.306 40.817,93.347 40.167,93.99ZM41.788,94.593L41.828,94.629C42.068,94.861 42.081,95.212 41.873,95.412C41.634,95.642 41.16,95.66 40.849,95.434C40.602,95.254 40.59,94.938 40.85,94.68C41.123,94.41 41.536,94.384 41.788,94.593ZM46.383,101.215C45.637,100.671 45.6,99.652 46.273,98.986C46.923,98.343 47.961,98.302 48.599,98.917L48.643,98.961C49.221,99.561 49.254,100.483 48.695,101.066L48.653,101.108C48.066,101.673 47.066,101.712 46.383,101.215ZM47.934,99.625L47.894,99.589C47.643,99.38 47.229,99.406 46.957,99.676C46.696,99.934 46.708,100.25 46.955,100.43C47.266,100.656 47.741,100.638 47.979,100.408C48.187,100.208 48.174,99.857 47.934,99.625ZM114.721,99.308C113.948,100.088 113.927,101.235 114.751,101.825C115.506,102.366 116.635,102.259 117.311,101.594C118.012,100.905 118.031,99.795 117.342,99.12C116.645,98.438 115.475,98.548 114.721,99.308ZM116.632,99.787L116.672,99.823C116.957,100.103 116.949,100.588 116.629,100.902C116.286,101.24 115.681,101.297 115.317,101.035C115.021,100.824 115.029,100.377 115.411,99.992C115.799,99.601 116.338,99.538 116.632,99.787ZM119.127,97.844C118.265,97.912 117.659,97.14 117.734,96.212C117.807,95.31 118.494,94.594 119.319,94.659C120.13,94.724 120.712,95.464 120.635,96.296C120.561,97.096 119.902,97.782 119.127,97.844ZM119.257,95.629L119.21,95.627C118.977,95.633 118.734,95.902 118.702,96.291C118.672,96.67 118.845,96.891 119.051,96.875C119.343,96.852 119.636,96.546 119.668,96.207C119.696,95.9 119.499,95.648 119.257,95.629Z" style="fill:rgb(0,22,10);"/>
                    </g>
                    <g transform="matrix(3.11894,0,0,3.11894,3395.77,2546.79)">
                        <path d="M46.276,98.985C45.602,99.652 45.639,100.671 46.386,101.214C47.068,101.712 48.068,101.673 48.655,101.108L48.697,101.065C49.257,100.482 49.224,99.561 48.646,98.961L48.601,98.916C47.964,98.302 46.926,98.342 46.276,98.985ZM47.897,99.588L47.937,99.625C48.177,99.857 48.19,100.207 47.981,100.408C47.743,100.637 47.269,100.656 46.958,100.429C46.71,100.249 46.699,99.933 46.959,99.676C47.232,99.406 47.645,99.379 47.897,99.588Z" style="fill:rgb(0,22,10);"/>
                    </g>
                    <g transform="matrix(3.11894,0,0,3.11894,3395.77,2546.79)">
                        <path d="M116.633,99.787L116.673,99.823C116.958,100.103 116.95,100.588 116.63,100.902C116.287,101.24 115.682,101.297 115.318,101.036C115.022,100.824 115.03,100.377 115.412,99.992C115.8,99.601 116.339,99.538 116.633,99.787Z" style="fill:white;fill-rule:nonzero;"/>
                    </g>
                    <g transform="matrix(3.11894,0,0,3.11894,3395.77,2546.79)">
                        <path d="M55.375,40.218C55.054,40.33 54.765,40.481 54.408,40.7L54.134,40.872L53.998,40.959C51.928,42.295 50.546,43.956 49.563,46.206L49.511,46.328L49.471,46.316C49.21,46.24 48.974,46.202 48.721,46.223C48.182,46.268 47.679,46.591 47.5,47.193C47.219,48.133 47.335,49.209 47.699,50.31L47.768,50.511C48.123,51.532 48.515,52.224 49.169,52.426C50.037,52.695 53.038,51.506 54.085,50.426C54.832,49.656 54.533,48.714 53.822,48.171L53.757,48.123L53.688,48.075L53.61,48.025L53.662,47.931C53.699,47.868 53.737,47.802 53.776,47.737C54.201,47.033 54.731,46.368 55.269,45.897C55.476,45.715 55.715,45.549 55.988,45.394C56.41,45.154 58.094,44.493 58.378,44.27C59.288,43.554 59.183,42.517 58.607,41.618C58.249,41.059 57.686,40.535 57.142,40.271C56.57,39.994 55.972,40.011 55.375,40.218ZM56.597,41.395C57.241,41.707 58.173,42.843 57.606,43.289C57.221,43.591 55.639,43.912 54.446,44.957C53.037,46.191 52.024,48.179 52.024,48.666L52.185,48.726C53.063,49.064 53.397,49.341 53.188,49.557C52.257,50.518 49.725,51.291 49.538,51.233C49.354,51.176 48.261,49.01 48.697,47.55C48.755,47.355 49.261,47.503 50.214,47.995C51.071,45.446 52.324,43.53 54.666,42.015L54.963,41.826C55.468,41.509 56.091,41.15 56.597,41.395Z" style="fill:rgb(0,22,10);"/>
                    </g>
                    <g transform="matrix(3.11894,0,0,3.11894,3395.77,2546.79)">
                        <path d="M57.274,68.96C52.132,63.341 51.835,53.756 57.389,47.584C60.84,43.749 68.95,41.279 74.626,42.656C77.679,43.396 80.991,46.392 83.097,50.327C85.464,54.749 86.068,59.773 84.422,64.419C83.172,67.946 80.914,70.406 77.913,71.873C75.517,73.043 72.754,73.521 70.064,73.407C65.208,73.203 59.171,71.033 57.274,68.96ZM81.874,50.982C79.939,47.368 76.924,44.642 74.299,44.005L74.143,43.968C68.965,42.794 61.498,45.093 58.421,48.512C53.355,54.141 53.628,62.92 58.298,68.023C59.909,69.784 65.603,71.83 70.122,72.021C72.596,72.125 75.132,71.687 77.304,70.626C79.985,69.316 81.988,67.133 83.114,63.955C84.622,59.7 84.065,55.077 81.874,50.982ZM79.2,64.279C82.271,58.888 78.108,47.246 72.293,46.275C66.828,45.362 64.756,46.687 62.399,48.731L61.943,49.131C57.33,53.21 57.33,61.973 61.837,66.038C62.969,67.059 67.952,69.68 71.776,68.879C74.312,68.347 77.84,66.666 79.2,64.279ZM66.367,47.796C66.656,47.692 66.962,47.606 67.287,47.54C67.243,47.641 67.206,47.748 67.175,47.861C67.002,48.495 67.02,49.037 67.206,50.357L67.333,51.231C67.344,51.309 67.354,51.379 67.363,51.452L67.391,51.674C67.589,53.345 67.409,54.217 66.662,54.697C65.979,55.137 65.306,55.303 63.771,55.482L63.195,55.547C62.487,55.629 62.115,55.685 61.667,55.786L61.465,55.827C60.844,55.958 60.33,56.12 59.93,56.324C60.193,53.937 61.171,51.666 62.862,50.171C64.457,48.761 65.262,48.192 66.367,47.796ZM72.065,47.644C71.84,47.606 71.622,47.573 71.409,47.543C71.454,47.656 71.491,47.776 71.522,47.902C71.652,48.432 71.675,48.902 71.643,49.972L71.628,50.434C71.612,50.879 71.604,51.143 71.602,51.397L71.602,51.702C71.615,53.056 71.827,53.957 72.348,54.566L72.406,54.632L72.429,54.641C72.461,54.654 72.502,54.669 72.551,54.685L72.602,54.702C72.721,54.74 72.871,54.782 73.062,54.833L73.383,54.914L74.75,55.249C75.019,55.316 75.258,55.377 75.487,55.437L75.863,55.539C76.994,55.85 77.861,56.154 78.491,56.493C77.55,52.277 74.957,48.127 72.065,47.644ZM78.643,59.593C78.721,59.543 78.795,59.493 78.865,59.441C78.898,61.014 78.635,62.468 77.994,63.592C77.075,65.206 74.521,66.743 72.027,67.394C72.09,67.235 72.141,67.062 72.181,66.877C72.302,66.308 72.321,65.656 72.273,64.732L72.243,64.235L72.198,63.582C72.113,62.277 72.134,61.73 72.247,61.6C72.759,61.011 73.469,60.786 75.274,60.527L75.692,60.467C77.201,60.247 77.909,60.06 78.643,59.593ZM68.036,66.718C68.055,66.952 68.132,67.191 68.258,67.417C67.619,67.281 66.953,67.087 66.274,66.839C64.756,66.283 63.284,65.475 62.766,65.007C61.12,63.523 60.173,61.281 59.924,58.922C60.35,59.118 60.914,59.284 61.614,59.45L61.722,59.475C62.004,59.541 62.293,59.602 62.635,59.669L63.609,59.859C65.791,60.307 66.917,60.826 67.432,61.52L67.484,61.593C67.825,62.09 67.919,62.653 67.947,64.114L67.962,65.155C67.974,65.778 67.993,66.191 68.036,66.718ZM69.677,47.599L69.74,47.604C70.329,47.675 70.453,48.221 70.383,50.281L70.36,50.996C70.354,51.211 70.352,51.384 70.352,51.574C70.353,52.866 70.507,53.87 70.923,54.674C70.845,54.632 70.757,54.609 70.663,54.609L70.568,54.61L70.545,54.611L70.534,54.606C70.375,54.548 70.201,54.566 70.06,54.649L70.046,54.658L69.997,54.666C68.786,54.868 67.583,55.591 66.938,56.548C66.246,57.576 66.28,58.697 67.07,59.658C66.319,59.262 65.322,58.944 64.006,58.666L63.582,58.58C63.332,58.532 63.021,58.472 63.021,58.472L62.77,58.423C62.528,58.374 62.313,58.329 62.106,58.282L62.004,58.259C61.378,58.113 60.883,57.964 60.537,57.808L60.482,57.783C60.376,57.732 60.292,57.684 60.231,57.64L60.223,57.634L60.239,57.618C60.281,57.576 60.346,57.527 60.435,57.476C60.738,57.301 61.237,57.141 61.923,57.009L62.096,56.971C62.401,56.908 62.7,56.864 63.167,56.808L63.924,56.722C65.646,56.521 66.444,56.323 67.338,55.748C68.643,54.908 68.892,53.596 68.617,51.406L68.586,51.175C68.571,51.062 68.554,50.944 68.532,50.793L68.446,50.202C68.291,49.102 68.269,48.63 68.37,48.225L68.38,48.189C68.504,47.734 68.819,47.545 69.677,47.599ZM68.387,60.713C68.403,60.734 68.419,60.755 68.435,60.777C69.025,61.572 69.161,62.275 69.195,64.07L69.209,65.018C69.219,65.611 69.234,66.002 69.268,66.455L69.281,66.617C69.307,66.938 69.854,67.448 70.459,67.333C70.93,67.243 71.112,66.471 71.024,64.753L71.011,64.538L70.943,63.53C70.834,61.879 70.868,61.33 71.245,60.852C70.342,61.192 69.291,61.176 68.387,60.713ZM72.702,59.81C73.262,59.598 73.975,59.455 74.965,59.309L75.502,59.233C76.756,59.049 77.362,58.9 77.876,58.598L77.972,58.54C78.553,58.169 78.609,58.095 78.35,57.887L78.266,57.822C77.809,57.478 76.926,57.134 75.655,56.778L75.387,56.704C75.097,56.625 74.799,56.548 74.448,56.461L72.987,56.103C72.711,56.034 72.491,55.976 72.311,55.922C73.44,57.116 73.626,58.46 72.851,59.607L72.807,59.671C72.773,59.718 72.738,59.764 72.702,59.81ZM70.219,55.754L70.298,55.743L70.354,55.777C72.17,56.881 72.574,58.083 71.902,59.027C71.234,59.966 69.768,60.29 68.715,59.623C67.495,58.85 67.293,58.009 67.859,57.169C68.337,56.459 69.293,55.897 70.219,55.754Z" style="fill:rgb(0,22,10);"/>
                    </g>
                    <g transform="matrix(3.11894,0,0,3.11894,3395.77,2546.79)">
                        <path d="M88.518,52.736C88.569,52.549 88.619,52.496 88.619,52.494C88.796,52.366 89.165,52.236 89.777,52.149C90.37,52.065 91.095,52.034 91.893,52.032C92.688,52.031 93.533,52.058 94.365,52.087C94.414,52.089 94.463,52.09 94.512,52.092C95.288,52.119 96.053,52.146 96.729,52.146C97.525,52.147 98.335,52.15 99.151,52.153C101.145,52.16 103.174,52.167 105.137,52.146C105.223,52.145 105.346,52.143 105.5,52.14C106.127,52.127 107.258,52.103 108.411,52.14C109.13,52.163 109.835,52.209 110.412,52.293C110.701,52.335 110.944,52.384 111.134,52.439C111.335,52.498 111.426,52.549 111.451,52.568C111.495,52.601 111.587,52.704 111.684,52.948C111.779,53.181 111.857,53.492 111.912,53.868C112.021,54.619 112.022,55.551 111.915,56.469C111.807,57.392 111.595,58.252 111.307,58.874C110.996,59.547 110.709,59.712 110.573,59.727C107.12,60.102 101.285,59.975 96.639,59.873C96.118,59.861 95.612,59.85 95.127,59.84C94.543,59.828 93.934,59.867 93.349,59.913C93.207,59.924 93.067,59.935 92.93,59.946C92.487,59.982 92.064,60.016 91.655,60.034C91.119,60.056 90.653,60.047 90.264,59.982C89.922,59.925 89.679,59.83 89.51,59.71C89.491,59.669 89.466,59.609 89.436,59.527C89.362,59.327 89.273,59.044 89.179,58.697C88.991,58.005 88.789,57.099 88.64,56.174C88.491,55.244 88.398,54.325 88.416,53.596C88.425,53.23 88.462,52.942 88.518,52.736ZM89.539,59.766C89.539,59.766 89.537,59.763 89.532,59.756C89.537,59.762 89.539,59.766 89.539,59.766Z" style="fill:none;fill-rule:nonzero;stroke:rgb(61,204,175);stroke-width:2px;stroke-linejoin:miter;stroke-miterlimit:4;"/>
                    </g>
                    <g transform="matrix(3.11894,0,0,3.11894,3395.77,2546.79)">
                        <path d="M96.712,51.587C97.513,51.588 98.325,51.591 99.141,51.593C100.821,51.599 102.522,51.605 104.188,51.594L105.113,51.587C105.192,51.586 105.31,51.584 105.458,51.58C106.848,51.551 110.951,51.465 111.853,52.149C113.329,53.27 112.742,60.322 110.631,60.551C107.129,60.932 101.244,60.803 96.611,60.701C96.088,60.689 95.581,60.678 95.095,60.668C94.421,60.655 93.695,60.713 92.978,60.771C91.37,60.902 89.808,61.028 88.978,60.322C88.549,59.958 86.899,53.026 88.184,52.075C89.166,51.347 91.984,51.445 94.515,51.533C95.143,51.555 95.754,51.576 96.314,51.584L96.315,51.583L96.316,51.584C96.451,51.586 96.583,51.587 96.712,51.587ZM95.02,52.938C95.156,52.943 95.281,52.947 95.396,52.951C95.489,53.525 95.5,54.535 95.433,56.023L95.384,57.098C95.34,58.103 95.324,58.787 95.352,59.286L95.026,59.279C94.571,59.273 94.11,59.294 93.476,59.34L92.536,59.414C91.153,59.516 90.435,59.501 90.074,59.372L90.048,59.362L90.027,59.301C89.968,59.128 89.901,58.905 89.831,58.649L89.786,58.481C89.607,57.795 89.434,56.981 89.308,56.198C89.155,55.243 89.077,54.388 89.093,53.748L89.096,53.666C89.104,53.453 89.122,53.276 89.149,53.144L89.154,53.122L89.201,53.106C89.439,53.031 89.861,52.954 90.425,52.91C91.128,52.855 91.966,52.848 93.128,52.877L94.108,52.907L95.02,52.938ZM99.444,59.372L96.761,59.316C96.746,59.158 96.736,58.965 96.732,58.741L96.731,58.693C96.727,58.342 96.734,58.006 96.759,57.416L96.837,55.681C96.884,54.49 96.886,53.625 96.807,52.975L102.547,52.988C102.855,52.988 103.15,52.987 103.437,52.986C103.349,54.713 103.489,57.733 103.668,59.419C103.184,59.419 102.681,59.416 102.159,59.411L101.167,59.4C100.62,59.392 100.061,59.383 99.444,59.372ZM105.078,59.415C107.21,59.397 108.922,59.328 110.25,59.196L110.374,59.183L110.391,59.166C110.461,59.085 110.544,58.957 110.629,58.784L110.66,58.717C110.91,58.178 111.107,57.393 111.209,56.523C111.309,55.663 111.308,54.791 111.208,54.102C111.162,53.784 111.097,53.524 111.024,53.341L111.003,53.292L110.987,53.26L110.932,53.242C110.783,53.198 110.58,53.156 110.33,53.119C109.838,53.046 109.205,52.997 108.464,52.971C107.775,52.947 107.075,52.943 106.291,52.953L105.127,52.975L104.796,52.977C104.785,53.165 104.777,53.388 104.774,53.638L104.774,53.719C104.768,54.396 104.792,55.248 104.84,56.192L104.85,56.382C104.89,57.122 104.943,57.887 104.999,58.559L105.033,58.951C105.048,59.118 105.063,59.274 105.078,59.415ZM98.966,55.319L99.093,55.5C99.237,55.704 99.374,55.884 99.504,56.043C99.329,56.423 99.238,56.85 99.209,57.4C99.199,57.6 99.352,57.77 99.552,57.781C99.752,57.791 99.922,57.638 99.933,57.438C99.95,57.121 99.988,56.86 100.057,56.628C100.458,56.979 100.81,57.109 101.179,57.116L101.25,57.116C101.45,57.116 101.613,56.954 101.613,56.754C101.613,56.566 101.47,56.412 101.287,56.393L101.25,56.391L101.19,56.391C100.953,56.386 100.714,56.286 100.39,55.959C100.495,55.811 100.623,55.664 100.775,55.508L101.164,55.123C101.306,54.982 101.307,54.753 101.166,54.611C101.025,54.468 100.796,54.467 100.654,54.608L100.328,54.929C100.17,55.087 100.031,55.239 99.91,55.391L99.778,55.213C99.71,55.118 99.638,55.017 99.564,54.908C99.451,54.743 99.225,54.701 99.06,54.815C98.895,54.928 98.853,55.154 98.966,55.319ZM108.864,54.973L108.868,54.752C108.869,54.552 108.708,54.389 108.508,54.387C108.308,54.385 108.145,54.546 108.143,54.746C108.141,54.966 108.135,55.164 108.126,55.34C107.94,55.282 107.74,55.233 107.521,55.191L107.072,55.107C106.875,55.07 106.685,55.199 106.648,55.395C106.61,55.592 106.74,55.782 106.936,55.819L107.474,55.921C107.687,55.965 107.875,56.015 108.045,56.079C107.96,56.532 107.818,56.748 107.625,56.885L107.574,56.919L107.544,56.941C107.403,57.059 107.371,57.266 107.476,57.422C107.588,57.588 107.813,57.632 107.98,57.52L108.038,57.48C108.341,57.268 108.559,56.963 108.695,56.448C108.883,56.601 109.06,56.796 109.251,57.05C109.372,57.21 109.599,57.242 109.759,57.121C109.919,57.001 109.951,56.773 109.831,56.614C109.499,56.174 109.184,55.871 108.827,55.653C108.846,55.449 108.858,55.223 108.864,54.973Z" style="fill:rgb(0,22,10);"/>
                    </g>
                    <g transform="matrix(3.11894,0,0,3.11894,3395.77,2546.79)">
                        <path d="M93.054,54.943L92.997,55.157C92.931,55.397 92.864,55.613 92.797,55.807C93.091,56.105 93.323,56.475 93.538,56.982C93.616,57.166 93.53,57.379 93.346,57.457C93.162,57.535 92.949,57.449 92.871,57.265C92.747,56.973 92.621,56.74 92.477,56.546C92.22,57.013 91.934,57.256 91.59,57.389L91.523,57.413C91.335,57.482 91.127,57.385 91.058,57.197C90.994,57.02 91.075,56.826 91.24,56.746L91.275,56.732L91.332,56.711C91.552,56.625 91.742,56.45 91.935,56.031C91.786,55.928 91.616,55.834 91.419,55.739L90.922,55.511C90.74,55.427 90.661,55.212 90.744,55.03C90.828,54.848 91.044,54.769 91.225,54.852L91.641,55.042C91.844,55.137 92.026,55.232 92.192,55.334C92.244,55.165 92.297,54.975 92.352,54.762C92.402,54.568 92.6,54.451 92.794,54.501C92.988,54.551 93.104,54.749 93.054,54.943Z" style="fill:rgb(61,204,175);"/>
                    </g>
                </g>
                <g transform="matrix(1.00611,0,0,1,-588.833,1294.71)">
                    <text x="767.311px" y="220.083px" style="font-family:'Larsseit-Light', 'Larsseit';font-weight:300;font-size:42px;fill:rgb(101,101,101);stroke:rgb(101,101,101);stroke-width:1px;">Any pr<tspan x="885.625px 909.691px 935.521px 958.621px 972.565px 986.635px " y="220.083px 220.083px 220.083px 220.083px 220.083px 220.083px ">operti</tspan>es y<tspan x="1067.02px 1091.09px " y="220.083px 220.083px ">ou</tspan> hold under y<tspan x="1345.32px 1369.38px " y="220.083px 220.083px ">ou</tspan>r name<tspan x="1512.27px " y="220.083px ">.</tspan></text>
                    <text x="712.816px" y="278.883px" style="font-family:'Larsseit-Light', 'Larsseit';font-weight:300;font-size:42px;fill:rgb(101,101,101);stroke:rgb(101,101,101);stroke-width:1px;">Y<tspan x="736.588px 760.654px " y="278.883px 278.883px ">ou</tspan>r Ex<tspan x="846.166px 869.644px 892.198px " y="278.883px 278.883px 278.883px ">ecu</tspan>tor will ne<tspan x="1089.68px 1113.16px 1137.98px " y="278.883px 278.883px 278.883px ">ed </tspan>this information in or<tspan x="1513.25px 1538.07px " y="278.883px 278.883px ">de</tspan>r</text>
                    <text x="693.286px" y="337.683px" style="font-family:'Larsseit-Light', 'Larsseit';font-weight:300;font-size:42px;fill:rgb(101,101,101);stroke:rgb(101,101,101);stroke-width:1px;">to pr<tspan x="778.714px 802.78px 828.61px 851.71px " y="337.683px 337.683px 337.683px 337.683px ">oper</tspan>ly pass the pr<tspan x="1102.11px 1126.18px 1152.01px 1175.11px 1189.05px 1203.12px " y="337.683px 337.683px 337.683px 337.683px 337.683px 337.683px ">operti</tspan>es&apos; o<tspan x="1292.96px 1324.92px " y="337.683px 337.683px ">wn</tspan>ership to y<tspan x="1534.92px 1558.99px " y="337.683px 337.683px ">ou</tspan>r</text>
                    <g transform="matrix(42,0,0,42,1116.75,396.483)">
                    </g>
                    <g transform="matrix(42,0,0,42,1129.91,396.483)">
                    </g>
                    <g transform="matrix(42,0,0,42,1264.34,396.483)">
                    </g>
                    <text x="1023.26px" y="396.483px" style="font-family:'Larsseit-Light', 'Larsseit';font-weight:300;font-size:42px;fill:rgb(101,101,101);stroke:rgb(101,101,101);stroke-width:1px;">b<tspan x="1048.67px 1071.77px " y="396.483px 396.483px ">en</tspan>eﬁciaries<tspan x="1256.32px " y="396.483px ">.</tspan></text>
                </g>
            </g>
        </g>
    </g>
</svg>
